<svg width="3924" height="5066" viewBox="0 0 3924 5066" fill="none" xmlns="http://www.w3.org/2000/svg">
<path fill-rule="evenodd" clip-rule="evenodd" d="M913.964 169.294C1077.66 66.6475 1254.53 0 1429.07 0C1476.02 0 1514.07 38.0558 1514.07 85C1514.07 131.944 1476.02 170 1429.07 170C1296.95 170 1151.41 221.058 1004.28 313.32C857.742 405.207 714.572 534.931 588.859 684.02C334.413 985.781 166.235 1348.49 170.064 1612.66C175.435 1983.27 315.43 2250.87 534.821 2440.55C629.675 2522.56 740.403 2590.84 863.238 2646.33C897.446 2578.32 939.789 2514.36 988.456 2456.99C1122.7 2298.74 1312.62 2182.14 1526.2 2176.03C1539.41 2175.66 1554.44 2174.96 1570.8 2174.2L1570.82 2174.2C1635 2171.22 1719.81 2167.28 1797.04 2177.93C1896 2191.58 2010.78 2232.51 2067.67 2352.61C2123.98 2471.49 2135 2581.12 2101.29 2677.19C2067.99 2772.11 1996.1 2839.26 1915.57 2884.62C1757.6 2973.6 1540.34 2994.27 1387.7 2970.79C1239.85 2948.04 1095.84 2914.09 959.955 2867.25C945.672 2921.13 938.073 2975.65 938.073 3029C938.073 3231.09 1025.38 3392.51 1173.15 3524.71C1323.02 3658.79 1534.04 3761.34 1773.36 3837.86C2251.76 3990.84 2817.97 4032 3157.07 4032C3159.89 4032 3162.68 4032.14 3165.44 4032.41H3651.29C3616.74 3995.86 3576.91 3955.49 3535.18 3914.11C3466.98 3846.47 3395.42 3777.82 3336.43 3721.24L3328.27 3713.41C3298.17 3684.54 3271.49 3658.92 3250.95 3638.82C3232.07 3620.36 3214.14 3602.51 3205.05 3591.48C3152.06 3527.13 3083.38 3462.48 3007.72 3414.5C2931.65 3366.27 2853.58 3338 2780 3338C2733.06 3338 2695 3299.94 2695 3253C2695 3206.06 2733.06 3168 2780 3168C2896.14 3168 3005.74 3211.95 3098.76 3270.94C3192.18 3330.18 3273.97 3407.75 3336.28 3483.41L3336.45 3483.59C3336.76 3483.94 3337.41 3484.67 3338.51 3485.85C3340.27 3487.74 3342.64 3490.21 3345.7 3493.33C3351.81 3499.56 3359.89 3507.58 3369.82 3517.29C3389.66 3536.7 3415.71 3561.71 3445.96 3590.74L3454.36 3598.79L3454.39 3598.82C3513.2 3655.23 3585.67 3724.75 3654.89 3793.4C3727.03 3864.94 3797.56 3937.43 3845.9 3994.13C3869.3 4021.57 3891.3 4049.67 3904.97 4074.12C3910.76 4084.48 3921.42 4104.94 3923.25 4129.5C3924.27 4143.26 3923.01 4164.94 3909.68 4186.59C3895.45 4209.73 3874.22 4221.91 3855.8 4227.17C3406.77 4355.47 2935.82 4689.39 2584.1 5041.1C2550.91 5074.3 2497.09 5074.3 2463.9 5041.1C2430.7 5007.91 2430.7 4954.09 2463.9 4920.9C2737.62 4647.17 3086.54 4377.93 3450.48 4202.41H3156.96C3154.11 4202.41 3151.3 4202.27 3148.52 4201.99C2799.68 4201.31 2219.35 4158.96 1721.58 3999.79C1470.76 3919.59 1234.59 3807.78 1059.8 3651.4C882.897 3493.14 768.073 3288.01 768.073 3029C768.073 2953.76 779.633 2878.12 800.884 2804.69C661.888 2742.68 534.347 2664.87 423.636 2569.15C166.712 2347.01 6.13971 2033.13 0.0816768 1615.12C-4.60063 1292.04 192.549 890.306 458.895 574.434C593.577 414.707 749.669 272.317 913.964 169.294ZM1022.22 2708.89C1144.62 2750.57 1276.07 2781.61 1413.55 2802.77C1537.96 2821.91 1714.77 2802.61 1832.14 2736.5C1889.27 2704.32 1925.36 2665.16 1940.88 2620.91C1956 2577.82 1956.68 2515.43 1914.03 2425.39C1893.49 2382.02 1850.12 2356.86 1773.81 2346.34C1713.76 2338.05 1650.66 2340.89 1588.05 2343.71H1588.04H1588.04H1588.04H1588.03C1568.96 2344.57 1549.94 2345.43 1531.06 2345.97C1377.77 2350.34 1229.92 2435.14 1118.1 2566.96C1081.05 2610.63 1048.79 2658.54 1022.22 2708.89ZM3757.78 4159.44C3757.77 4159.44 3757.73 4159.38 3757.67 4159.26C3757.61 4159.15 3757.53 4158.99 3757.44 4158.78C3757.37 4158.62 3757.29 4158.44 3757.21 4158.24C3757.64 4159.07 3757.8 4159.46 3757.78 4159.44Z" fill="#B49DE6"/>
</svg>
