<svg width="1890" height="679" viewBox="0 0 1890 679" fill="none" xmlns="http://www.w3.org/2000/svg">
<rect x="532.723" y="238.266" width="137.893" height="29.8119" fill="#2E236C"/>
<rect x="808.508" y="238.266" width="137.893" height="29.8119" fill="#2E236C"/>
<rect x="1084.29" y="238.266" width="137.893" height="29.8119" fill="#433D8B"/>
<rect x="670.617" y="238.266" width="137.893" height="29.8119" fill="#433D8B"/>
<rect x="394.832" y="238.266" width="137.893" height="29.8119" fill="#4A249D"/>
<rect x="946.402" y="238.266" width="137.893" height="29.8119" fill="#433D8B"/>
<rect x="1360.08" y="238.266" width="137.893" height="29.8119" fill="#4A249D"/>
<rect x="1222.19" y="238.266" width="137.893" height="29.8119" fill="#7E30E1"/>
<rect x="226.602" y="148.828" width="1467.18" height="59.6239" fill="url(#paint0_linear_0_1)"/>
<rect x="918.824" y="387.328" width="55.1572" height="59.6239" fill="url(#paint1_linear_0_1)"/>
<rect x="1194.61" y="387.328" width="55.1572" height="59.6239" fill="url(#paint2_linear_0_1)"/>
<rect width="55.1572" height="59.6239" transform="matrix(-1 0 0 1 698.195 387.328)" fill="url(#paint3_linear_0_1)"/>
<path d="M711.005 281.922C710.872 282.066 710.739 282.21 710.606 282.355C685.887 309.294 670.617 346.381 670.617 387.323H698.196C698.196 354.394 710.544 324.582 730.506 303.002L711.005 281.922Z" fill="#7E30E1"/>
<path d="M986.791 281.922C986.657 282.066 986.524 282.21 986.391 282.355C961.672 309.294 946.402 346.381 946.402 387.323H973.981C973.981 354.394 986.329 324.582 1006.29 303.002L986.791 281.922Z" fill="#F0F0F0"/>
<path d="M1262.58 281.922C1262.44 282.066 1262.31 282.21 1262.18 282.355C1237.46 309.294 1222.19 346.381 1222.19 387.323H1249.77C1249.77 354.394 1262.11 324.582 1282.08 303.002L1262.58 281.922Z" fill="#7E30E1"/>
<path d="M630.229 281.922C630.362 282.066 630.496 282.21 630.628 282.355C655.347 309.294 670.617 346.381 670.617 387.323H643.039C643.039 354.394 630.691 324.582 610.728 303.002L630.229 281.922Z" fill="#433D8B"/>
<path d="M906.014 281.922C906.147 282.066 906.281 282.21 906.413 282.355C931.132 309.294 946.402 346.381 946.402 387.323H918.824C918.824 354.394 906.476 324.582 886.513 303.002L906.014 281.922Z" fill="#4A249D"/>
<path d="M1181.8 281.922C1181.93 282.066 1182.07 282.21 1182.2 282.355C1206.92 309.294 1222.19 346.381 1222.19 387.323H1194.61C1194.61 354.394 1182.26 324.582 1162.3 303.002L1181.8 281.922Z" fill="#7E30E1"/>
<path d="M730.505 303.004C750.468 281.425 778.046 268.078 808.509 268.078V238.266C770.431 238.266 735.957 254.95 711.004 281.924L730.505 303.004Z" fill="#F0F0F0"/>
<path d="M1006.29 303.004C1026.25 281.425 1053.83 268.078 1084.29 268.078V238.266C1046.22 238.266 1011.74 254.95 986.789 281.924L1006.29 303.004Z" fill="#7E30E1"/>
<path d="M1282.08 303.004C1302.04 281.425 1329.62 268.078 1360.08 268.078V238.266C1322 238.266 1287.53 254.95 1262.57 281.924L1282.08 303.004Z" fill="#F0F0F0"/>
<path d="M610.726 303.004C590.763 281.425 563.184 268.078 532.722 268.078V238.266C570.8 238.266 605.273 254.95 630.227 281.924L610.726 303.004Z" fill="#4A249D"/>
<path d="M886.515 303.004C866.552 281.425 838.973 268.078 808.511 268.078V238.266C846.589 238.266 881.062 254.95 906.016 281.924L886.515 303.004Z" fill="#7E30E1"/>
<path d="M1162.3 303.004C1142.34 281.425 1114.76 268.078 1084.3 268.078V238.266C1122.37 238.266 1156.85 254.95 1181.8 281.924L1162.3 303.004Z" fill="#4A249D"/>
<rect x="226.602" y="208.453" width="1467.18" height="29.8119" fill="#433D8B"/>
<rect x="1015.35" y="208.453" width="137.893" height="29.8119" fill="#7E30E1"/>
<rect x="226.602" y="122" width="1467.18" height="29.8119" fill="#7E30E1"/>
<rect x="226.602" y="151.812" width="1467.18" height="29.8119" fill="#49108B"/>
<rect x="739.562" y="122" width="137.893" height="29.8119" fill="#433D8B"/>
<rect x="394.832" y="122" width="137.893" height="29.8119" fill="#433D8B"/>
<rect x="1360.08" y="122" width="137.893" height="29.8119" fill="#433D8B"/>
<g filter="url(#filter0_d_0_1)">
<mask id="path-33-outside-1_0_1" maskUnits="userSpaceOnUse" x="426" y="478" width="1043" height="96" fill="black">
<rect fill="white" x="426" y="478" width="1043" height="96"/>
<path d="M528.66 567.41V573H427V567.41H439.61V482.13H470.81C487.103 482.13 499.627 486.117 508.38 494.09C517.133 501.977 521.51 513.113 521.51 527.5C521.51 546.827 513.883 560.13 498.63 567.41H528.66ZM506.04 527.5C506.04 506.7 494.123 496.3 470.29 496.3H454.95V558.57H471.98C482.987 558.57 491.393 555.97 497.2 550.77C503.093 545.483 506.04 537.727 506.04 527.5ZM637.889 567.41V573H528.689V567.41H558.459C551.353 563.337 545.719 557.747 541.559 550.64C537.486 543.533 535.449 535.603 535.449 526.85C535.449 513.503 540.043 502.367 549.229 493.44C558.416 484.427 569.769 479.92 583.289 479.92C596.809 479.92 608.163 484.427 617.349 493.44C626.536 502.367 631.129 513.503 631.129 526.85C631.129 535.517 629.049 543.447 624.889 550.64C620.816 557.833 615.226 563.423 608.119 567.41H637.889ZM606.039 503.58C599.886 497.167 592.303 493.96 583.289 493.96C574.276 493.96 566.649 497.167 560.409 503.58C554.256 509.993 551.179 517.793 551.179 526.98C551.179 536.08 554.256 543.837 560.409 550.25C566.649 556.663 574.276 559.87 583.289 559.87C592.303 559.87 599.886 556.663 606.039 550.25C612.279 543.837 615.399 536.08 615.399 526.98C615.399 517.793 612.279 509.993 606.039 503.58ZM650.479 567.41V482.13H665.819L718.599 549.99V482.13H733.939V567.41H746.549V573H717.299L665.819 506.7V573H637.869V567.41H650.479ZM855.741 567.41V573H746.541V567.41H776.311C769.204 563.337 763.571 557.747 759.411 550.64C755.338 543.533 753.301 535.603 753.301 526.85C753.301 513.503 757.894 502.367 767.081 493.44C776.268 484.427 787.621 479.92 801.141 479.92C814.661 479.92 826.014 484.427 835.201 493.44C844.388 502.367 848.981 513.503 848.981 526.85C848.981 535.517 846.901 543.447 842.741 550.64C838.668 557.833 833.078 563.423 825.971 567.41H855.741ZM823.891 503.58C817.738 497.167 810.154 493.96 801.141 493.96C792.128 493.96 784.501 497.167 778.261 503.58C772.108 509.993 769.031 517.793 769.031 526.98C769.031 536.08 772.108 543.837 778.261 550.25C784.501 556.663 792.128 559.87 801.141 559.87C810.154 559.87 817.738 556.663 823.891 550.25C830.131 543.837 833.251 536.08 833.251 526.98C833.251 517.793 830.131 509.993 823.891 503.58ZM953.611 567.41V573H925.531L903.821 542.45H883.671V573H855.721V567.41H868.331V482.13H902.131C915.997 482.13 925.921 484.47 931.901 489.15C937.881 493.83 940.871 501.327 940.871 511.64C940.871 526.633 934.327 536.08 921.241 539.98L941.001 567.41H953.611ZM902.781 528.54C911.447 528.54 917.341 527.197 920.461 524.51C923.581 521.823 925.141 517.533 925.141 511.64C925.141 505.66 923.537 501.587 920.331 499.42C917.124 497.167 911.404 496.04 903.171 496.04H883.671V528.54H902.781ZM1042.08 567.41V573H950.301V567.41H962.911V482.13H998.271C1004.42 482.13 1009.71 482.867 1014.13 484.34C1018.64 485.813 1021.97 487.807 1024.14 490.32C1028.3 495 1030.38 500.287 1030.38 506.18C1030.38 513.287 1028.13 518.573 1023.62 522.04C1021.97 523.253 1020.85 524.033 1020.24 524.38C1019.63 524.64 1018.55 525.117 1016.99 525.81C1022.62 527.023 1027.09 529.58 1030.38 533.48C1033.76 537.293 1035.45 542.06 1035.45 547.78C1035.45 556.36 1032.07 562.903 1025.31 567.41H1042.08ZM978.251 558.83H1002.3C1007.93 558.83 1012.22 557.963 1015.17 556.23C1018.2 554.41 1019.72 551.03 1019.72 546.09C1019.72 538.03 1013.26 534 1000.35 534H978.251V558.83ZM978.251 519.83H997.751C1008.84 519.83 1014.39 516.06 1014.39 508.52C1014.39 504.187 1013.05 501.067 1010.36 499.16C1007.67 497.253 1003.51 496.3 997.881 496.3H978.251V519.83ZM1139.98 567.41V573H1111.9L1090.19 542.45H1070.04V573H1042.09V567.41H1054.7V482.13H1088.5C1102.36 482.13 1112.29 484.47 1118.27 489.15C1124.25 493.83 1127.24 501.327 1127.24 511.64C1127.24 526.633 1120.69 536.08 1107.61 539.98L1127.37 567.41H1139.98ZM1089.15 528.54C1097.81 528.54 1103.71 527.197 1106.83 524.51C1109.95 521.823 1111.51 517.533 1111.51 511.64C1111.51 505.66 1109.9 501.587 1106.7 499.42C1103.49 497.167 1097.77 496.04 1089.54 496.04H1070.04V528.54H1089.15ZM1149.28 567.41V482.13H1164.62V567.41H1177.23V573H1136.67V567.41H1149.28ZM1278.83 567.41V573H1177.17V567.41H1189.78V482.13H1220.98C1237.27 482.13 1249.79 486.117 1258.55 494.09C1267.3 501.977 1271.68 513.113 1271.68 527.5C1271.68 546.827 1264.05 560.13 1248.8 567.41H1278.83ZM1256.21 527.5C1256.21 506.7 1244.29 496.3 1220.46 496.3H1205.12V558.57H1222.15C1233.15 558.57 1241.56 555.97 1247.37 550.77C1253.26 545.483 1256.21 537.727 1256.21 527.5ZM1377.27 567.41V573H1278.86V567.41H1310.32C1302.78 563.597 1296.75 558.007 1292.25 550.64C1287.83 543.273 1285.62 534.953 1285.62 525.68C1285.62 512.42 1290.21 501.5 1299.4 492.92C1308.58 484.253 1319.72 479.92 1332.81 479.92C1345.98 479.92 1356.9 483.733 1365.57 491.36L1357.38 503.06C1353.82 500.027 1350.23 497.947 1346.59 496.82C1343.03 495.607 1338.87 495 1334.11 495C1324.83 495 1317.08 497.773 1310.84 503.32C1304.68 508.867 1301.61 516.45 1301.61 526.07C1301.61 535.69 1304.64 543.447 1310.71 549.34C1316.77 555.147 1324.1 558.05 1332.68 558.05C1341.34 558.05 1348.58 556.187 1354.39 552.46V527.5H1369.73V558.57C1366.52 562.123 1362.62 565.07 1358.03 567.41H1377.27ZM1389.85 567.41V482.13H1453.68V496.56H1405.19V520.61H1448.74V534.26H1405.19V558.57H1455.24V567.41H1467.85V573H1377.24V567.41H1389.85Z"/>
</mask>
<path d="M528.66 567.41V573H427V567.41H439.61V482.13H470.81C487.103 482.13 499.627 486.117 508.38 494.09C517.133 501.977 521.51 513.113 521.51 527.5C521.51 546.827 513.883 560.13 498.63 567.41H528.66ZM506.04 527.5C506.04 506.7 494.123 496.3 470.29 496.3H454.95V558.57H471.98C482.987 558.57 491.393 555.97 497.2 550.77C503.093 545.483 506.04 537.727 506.04 527.5ZM637.889 567.41V573H528.689V567.41H558.459C551.353 563.337 545.719 557.747 541.559 550.64C537.486 543.533 535.449 535.603 535.449 526.85C535.449 513.503 540.043 502.367 549.229 493.44C558.416 484.427 569.769 479.92 583.289 479.92C596.809 479.92 608.163 484.427 617.349 493.44C626.536 502.367 631.129 513.503 631.129 526.85C631.129 535.517 629.049 543.447 624.889 550.64C620.816 557.833 615.226 563.423 608.119 567.41H637.889ZM606.039 503.58C599.886 497.167 592.303 493.96 583.289 493.96C574.276 493.96 566.649 497.167 560.409 503.58C554.256 509.993 551.179 517.793 551.179 526.98C551.179 536.08 554.256 543.837 560.409 550.25C566.649 556.663 574.276 559.87 583.289 559.87C592.303 559.87 599.886 556.663 606.039 550.25C612.279 543.837 615.399 536.08 615.399 526.98C615.399 517.793 612.279 509.993 606.039 503.58ZM650.479 567.41V482.13H665.819L718.599 549.99V482.13H733.939V567.41H746.549V573H717.299L665.819 506.7V573H637.869V567.41H650.479ZM855.741 567.41V573H746.541V567.41H776.311C769.204 563.337 763.571 557.747 759.411 550.64C755.338 543.533 753.301 535.603 753.301 526.85C753.301 513.503 757.894 502.367 767.081 493.44C776.268 484.427 787.621 479.92 801.141 479.92C814.661 479.92 826.014 484.427 835.201 493.44C844.388 502.367 848.981 513.503 848.981 526.85C848.981 535.517 846.901 543.447 842.741 550.64C838.668 557.833 833.078 563.423 825.971 567.41H855.741ZM823.891 503.58C817.738 497.167 810.154 493.96 801.141 493.96C792.128 493.96 784.501 497.167 778.261 503.58C772.108 509.993 769.031 517.793 769.031 526.98C769.031 536.08 772.108 543.837 778.261 550.25C784.501 556.663 792.128 559.87 801.141 559.87C810.154 559.87 817.738 556.663 823.891 550.25C830.131 543.837 833.251 536.08 833.251 526.98C833.251 517.793 830.131 509.993 823.891 503.58ZM953.611 567.41V573H925.531L903.821 542.45H883.671V573H855.721V567.41H868.331V482.13H902.131C915.997 482.13 925.921 484.47 931.901 489.15C937.881 493.83 940.871 501.327 940.871 511.64C940.871 526.633 934.327 536.08 921.241 539.98L941.001 567.41H953.611ZM902.781 528.54C911.447 528.54 917.341 527.197 920.461 524.51C923.581 521.823 925.141 517.533 925.141 511.64C925.141 505.66 923.537 501.587 920.331 499.42C917.124 497.167 911.404 496.04 903.171 496.04H883.671V528.54H902.781ZM1042.08 567.41V573H950.301V567.41H962.911V482.13H998.271C1004.42 482.13 1009.71 482.867 1014.13 484.34C1018.64 485.813 1021.97 487.807 1024.14 490.32C1028.3 495 1030.38 500.287 1030.38 506.18C1030.38 513.287 1028.13 518.573 1023.62 522.04C1021.97 523.253 1020.85 524.033 1020.24 524.38C1019.63 524.64 1018.55 525.117 1016.99 525.81C1022.62 527.023 1027.09 529.58 1030.38 533.48C1033.76 537.293 1035.45 542.06 1035.45 547.78C1035.45 556.36 1032.07 562.903 1025.31 567.41H1042.08ZM978.251 558.83H1002.3C1007.93 558.83 1012.22 557.963 1015.17 556.23C1018.2 554.41 1019.72 551.03 1019.72 546.09C1019.72 538.03 1013.26 534 1000.35 534H978.251V558.83ZM978.251 519.83H997.751C1008.84 519.83 1014.39 516.06 1014.39 508.52C1014.39 504.187 1013.05 501.067 1010.36 499.16C1007.67 497.253 1003.51 496.3 997.881 496.3H978.251V519.83ZM1139.98 567.41V573H1111.9L1090.19 542.45H1070.04V573H1042.09V567.41H1054.7V482.13H1088.5C1102.36 482.13 1112.29 484.47 1118.27 489.15C1124.25 493.83 1127.24 501.327 1127.24 511.64C1127.24 526.633 1120.69 536.08 1107.61 539.98L1127.37 567.41H1139.98ZM1089.15 528.54C1097.81 528.54 1103.71 527.197 1106.83 524.51C1109.95 521.823 1111.51 517.533 1111.51 511.64C1111.51 505.66 1109.9 501.587 1106.7 499.42C1103.49 497.167 1097.77 496.04 1089.54 496.04H1070.04V528.54H1089.15ZM1149.28 567.41V482.13H1164.62V567.41H1177.23V573H1136.67V567.41H1149.28ZM1278.83 567.41V573H1177.17V567.41H1189.78V482.13H1220.98C1237.27 482.13 1249.79 486.117 1258.55 494.09C1267.3 501.977 1271.68 513.113 1271.68 527.5C1271.68 546.827 1264.05 560.13 1248.8 567.41H1278.83ZM1256.21 527.5C1256.21 506.7 1244.29 496.3 1220.46 496.3H1205.12V558.57H1222.15C1233.15 558.57 1241.56 555.97 1247.37 550.77C1253.26 545.483 1256.21 537.727 1256.21 527.5ZM1377.27 567.41V573H1278.86V567.41H1310.32C1302.78 563.597 1296.75 558.007 1292.25 550.64C1287.83 543.273 1285.62 534.953 1285.62 525.68C1285.62 512.42 1290.21 501.5 1299.4 492.92C1308.58 484.253 1319.72 479.92 1332.81 479.92C1345.98 479.92 1356.9 483.733 1365.57 491.36L1357.38 503.06C1353.82 500.027 1350.23 497.947 1346.59 496.82C1343.03 495.607 1338.87 495 1334.11 495C1324.83 495 1317.08 497.773 1310.84 503.32C1304.68 508.867 1301.61 516.45 1301.61 526.07C1301.61 535.69 1304.64 543.447 1310.71 549.34C1316.77 555.147 1324.1 558.05 1332.68 558.05C1341.34 558.05 1348.58 556.187 1354.39 552.46V527.5H1369.73V558.57C1366.52 562.123 1362.62 565.07 1358.03 567.41H1377.27ZM1389.85 567.41V482.13H1453.68V496.56H1405.19V520.61H1448.74V534.26H1405.19V558.57H1455.24V567.41H1467.85V573H1377.24V567.41H1389.85Z" fill="#F0F0F0"/>
<path d="M528.66 567.41H529.66V566.41H528.66V567.41ZM528.66 573V574H529.66V573H528.66ZM427 573H426V574H427V573ZM427 567.41V566.41H426V567.41H427ZM439.61 567.41V568.41H440.61V567.41H439.61ZM439.61 482.13V481.13H438.61V482.13H439.61ZM508.38 494.09L507.707 494.829L507.711 494.833L508.38 494.09ZM498.63 567.41L498.199 566.508L498.63 568.41V567.41ZM454.95 496.3V495.3H453.95V496.3H454.95ZM454.95 558.57H453.95V559.57H454.95V558.57ZM497.2 550.77L497.867 551.515L497.868 551.514L497.2 550.77ZM527.66 567.41V573H529.66V567.41H527.66ZM528.66 572H427V574H528.66V572ZM428 573V567.41H426V573H428ZM427 568.41H439.61V566.41H427V568.41ZM440.61 567.41V482.13H438.61V567.41H440.61ZM439.61 483.13H470.81V481.13H439.61V483.13ZM470.81 483.13C486.949 483.13 499.197 487.078 507.707 494.829L509.053 493.351C500.056 485.155 487.258 481.13 470.81 481.13V483.13ZM507.711 494.833C516.208 502.489 520.51 513.329 520.51 527.5H522.51C522.51 512.898 518.059 501.464 509.049 493.347L507.711 494.833ZM520.51 527.5C520.51 537.034 518.629 545.009 514.922 551.475C511.22 557.933 505.662 562.946 498.199 566.508L499.061 568.312C506.851 564.594 512.733 559.316 516.658 552.47C520.578 545.632 522.51 537.293 522.51 527.5H520.51ZM498.63 568.41H528.66V566.41H498.63V568.41ZM507.04 527.5C507.04 516.908 503.999 508.792 497.76 503.347C491.547 497.924 482.33 495.3 470.29 495.3V497.3C482.083 497.3 490.742 499.876 496.445 504.853C502.122 509.808 505.04 517.292 505.04 527.5H507.04ZM470.29 495.3H454.95V497.3H470.29V495.3ZM453.95 496.3V558.57H455.95V496.3H453.95ZM454.95 559.57H471.98V557.57H454.95V559.57ZM471.98 559.57C483.132 559.57 491.814 556.936 497.867 551.515L496.533 550.025C490.973 555.004 482.841 557.57 471.98 557.57V559.57ZM497.868 551.514C504.03 545.986 507.04 537.923 507.04 527.5H505.04C505.04 537.531 502.156 544.98 496.532 550.026L497.868 551.514ZM637.889 567.41H638.889V566.41H637.889V567.41ZM637.889 573V574H638.889V573H637.889ZM528.689 573H527.689V574H528.689V573ZM528.689 567.41V566.41H527.689V567.41H528.689ZM558.459 567.41V568.41H562.215L558.957 566.542L558.459 567.41ZM541.559 550.64L540.692 551.137L540.696 551.145L541.559 550.64ZM549.229 493.44L549.926 494.157L549.93 494.154L549.229 493.44ZM617.349 493.44L616.649 494.154L616.653 494.157L617.349 493.44ZM624.889 550.64L624.024 550.139L624.019 550.147L624.889 550.64ZM608.119 567.41L607.63 566.538L604.293 568.41H608.119V567.41ZM606.039 503.58L605.318 504.272L605.323 504.277L606.039 503.58ZM560.409 503.58L559.693 502.883L559.688 502.888L560.409 503.58ZM560.409 550.25L559.688 550.942L559.693 550.947L560.409 550.25ZM606.039 550.25L605.323 549.553L605.318 549.558L606.039 550.25ZM636.889 567.41V573H638.889V567.41H636.889ZM637.889 572H528.689V574H637.889V572ZM529.689 573V567.41H527.689V573H529.689ZM528.689 568.41H558.459V566.41H528.689V568.41ZM558.957 566.542C552.002 562.556 546.495 557.092 542.422 550.135L540.696 551.145C544.944 558.402 550.703 564.117 557.962 568.278L558.957 566.542ZM542.427 550.143C538.446 543.198 536.449 535.441 536.449 526.85H534.449C534.449 535.765 536.526 543.869 540.692 551.137L542.427 550.143ZM536.449 526.85C536.449 513.761 540.942 502.887 549.926 494.157L548.533 492.723C539.143 501.846 534.449 513.246 534.449 526.85H536.449ZM549.93 494.154C558.919 485.334 570.017 480.92 583.289 480.92V478.92C569.522 478.92 557.913 483.519 548.529 492.726L549.93 494.154ZM583.289 480.92C596.562 480.92 607.66 485.334 616.649 494.154L618.05 492.726C608.666 483.519 597.057 478.92 583.289 478.92V480.92ZM616.653 494.157C625.637 502.887 630.129 513.761 630.129 526.85H632.129C632.129 513.246 627.436 501.846 618.046 492.723L616.653 494.157ZM630.129 526.85C630.129 535.349 628.092 543.105 624.024 550.139L625.755 551.141C630.007 543.788 632.129 535.685 632.129 526.85H630.129ZM624.019 550.147C620.035 557.184 614.575 562.642 607.63 566.538L608.609 568.282C615.877 564.205 621.598 558.483 625.76 551.133L624.019 550.147ZM608.119 568.41H637.889V566.41H608.119V568.41ZM606.761 502.888C600.416 496.275 592.571 492.96 583.289 492.96V494.96C592.035 494.96 599.356 498.059 605.318 504.272L606.761 502.888ZM583.289 492.96C574.008 492.96 566.123 496.274 559.693 502.883L561.126 504.277C567.176 498.059 574.544 494.96 583.289 494.96V492.96ZM559.688 502.888C553.349 509.494 550.179 517.545 550.179 526.98H552.179C552.179 518.042 555.163 510.493 561.131 504.272L559.688 502.888ZM550.179 526.98C550.179 536.331 553.351 544.338 559.688 550.942L561.131 549.558C555.161 543.335 552.179 535.829 552.179 526.98H550.179ZM559.693 550.947C566.123 557.556 574.008 560.87 583.289 560.87V558.87C574.544 558.87 567.176 555.771 561.126 549.553L559.693 550.947ZM583.289 560.87C592.571 560.87 600.416 557.555 606.761 550.942L605.318 549.558C599.356 555.771 592.035 558.87 583.289 558.87V560.87ZM606.756 550.947C613.181 544.344 616.399 536.336 616.399 526.98H614.399C614.399 535.824 611.378 543.33 605.323 549.553L606.756 550.947ZM616.399 526.98C616.399 517.541 613.183 509.488 606.756 502.883L605.323 504.277C611.376 510.499 614.399 518.046 614.399 526.98H616.399ZM650.479 567.41V568.41H651.479V567.41H650.479ZM650.479 482.13V481.13H649.479V482.13H650.479ZM665.819 482.13L666.608 481.516L666.308 481.13H665.819V482.13ZM718.599 549.99L717.81 550.604L719.599 552.905V549.99H718.599ZM718.599 482.13V481.13H717.599V482.13H718.599ZM733.939 482.13H734.939V481.13H733.939V482.13ZM733.939 567.41H732.939V568.41H733.939V567.41ZM746.549 567.41H747.549V566.41H746.549V567.41ZM746.549 573V574H747.549V573H746.549ZM717.299 573L716.509 573.613L716.81 574H717.299V573ZM665.819 506.7L666.609 506.087L664.819 503.782V506.7H665.819ZM665.819 573V574H666.819V573H665.819ZM637.869 573H636.869V574H637.869V573ZM637.869 567.41V566.41H636.869V567.41H637.869ZM651.479 567.41V482.13H649.479V567.41H651.479ZM650.479 483.13H665.819V481.13H650.479V483.13ZM665.03 482.744L717.81 550.604L719.388 549.376L666.608 481.516L665.03 482.744ZM719.599 549.99V482.13H717.599V549.99H719.599ZM718.599 483.13H733.939V481.13H718.599V483.13ZM732.939 482.13V567.41H734.939V482.13H732.939ZM733.939 568.41H746.549V566.41H733.939V568.41ZM745.549 567.41V573H747.549V567.41H745.549ZM746.549 572H717.299V574H746.549V572ZM718.089 572.387L666.609 506.087L665.029 507.313L716.509 573.613L718.089 572.387ZM664.819 506.7V573H666.819V506.7H664.819ZM665.819 572H637.869V574H665.819V572ZM638.869 573V567.41H636.869V573H638.869ZM637.869 568.41H650.479V566.41H637.869V568.41ZM855.741 567.41H856.741V566.41H855.741V567.41ZM855.741 573V574H856.741V573H855.741ZM746.541 573H745.541V574H746.541V573ZM746.541 567.41V566.41H745.541V567.41H746.541ZM776.311 567.41V568.41H780.067L776.808 566.542L776.311 567.41ZM759.411 550.64L758.543 551.137L758.548 551.145L759.411 550.64ZM767.081 493.44L767.778 494.157L767.781 494.154L767.081 493.44ZM835.201 493.44L834.501 494.154L834.504 494.157L835.201 493.44ZM842.741 550.64L841.875 550.139L841.871 550.147L842.741 550.64ZM825.971 567.41L825.482 566.538L822.144 568.41H825.971V567.41ZM823.891 503.58L823.169 504.272L823.174 504.277L823.891 503.58ZM778.261 503.58L777.544 502.883L777.539 502.888L778.261 503.58ZM778.261 550.25L777.539 550.942L777.544 550.947L778.261 550.25ZM823.891 550.25L823.174 549.553L823.169 549.558L823.891 550.25ZM854.741 567.41V573H856.741V567.41H854.741ZM855.741 572H746.541V574H855.741V572ZM747.541 573V567.41H745.541V573H747.541ZM746.541 568.41H776.311V566.41H746.541V568.41ZM776.808 566.542C769.854 562.556 764.346 557.092 760.274 550.135L758.548 551.145C762.796 558.402 768.555 564.117 775.814 568.278L776.808 566.542ZM760.279 550.143C756.298 543.198 754.301 535.441 754.301 526.85H752.301C752.301 535.765 754.377 543.869 758.543 551.137L760.279 550.143ZM754.301 526.85C754.301 513.761 758.794 502.887 767.778 494.157L766.384 492.723C756.995 501.846 752.301 513.246 752.301 526.85H754.301ZM767.781 494.154C776.771 485.334 787.868 480.92 801.141 480.92V478.92C787.374 478.92 775.765 483.519 766.381 492.726L767.781 494.154ZM801.141 480.92C814.414 480.92 825.511 485.334 834.501 494.154L835.901 492.726C826.518 483.519 814.908 478.92 801.141 478.92V480.92ZM834.504 494.157C843.488 502.887 847.981 513.761 847.981 526.85H849.981C849.981 513.246 845.287 501.846 835.898 492.723L834.504 494.157ZM847.981 526.85C847.981 535.349 845.943 543.105 841.875 550.139L843.607 551.141C847.859 543.788 849.981 535.685 849.981 526.85H847.981ZM841.871 550.147C837.886 557.184 832.427 562.642 825.482 566.538L826.46 568.282C833.729 564.205 839.449 558.483 843.611 551.133L841.871 550.147ZM825.971 568.41H855.741V566.41H825.971V568.41ZM824.613 502.888C818.268 496.275 810.422 492.96 801.141 492.96V494.96C809.886 494.96 817.208 498.059 823.169 504.272L824.613 502.888ZM801.141 492.96C791.86 492.96 783.974 496.274 777.544 502.883L778.978 504.277C785.028 498.059 792.395 494.96 801.141 494.96V492.96ZM777.539 502.888C771.201 509.494 768.031 517.545 768.031 526.98H770.031C770.031 518.042 773.014 510.493 778.983 504.272L777.539 502.888ZM768.031 526.98C768.031 536.331 771.203 544.338 777.539 550.942L778.983 549.558C773.013 543.335 770.031 535.829 770.031 526.98H768.031ZM777.544 550.947C783.974 557.556 791.86 560.87 801.141 560.87V558.87C792.395 558.87 785.028 555.771 778.978 549.553L777.544 550.947ZM801.141 560.87C810.422 560.87 818.268 557.555 824.613 550.942L823.169 549.558C817.208 555.771 809.886 558.87 801.141 558.87V560.87ZM824.608 550.947C831.033 544.344 834.251 536.336 834.251 526.98H832.251C832.251 535.824 829.229 543.33 823.174 549.553L824.608 550.947ZM834.251 526.98C834.251 517.541 831.035 509.488 824.608 502.883L823.174 504.277C829.227 510.499 832.251 518.046 832.251 526.98H834.251ZM953.611 567.41H954.611V566.41H953.611V567.41ZM953.611 573V574H954.611V573H953.611ZM925.531 573L924.716 573.579L925.015 574H925.531V573ZM903.821 542.45L904.636 541.871L904.337 541.45H903.821V542.45ZM883.671 542.45V541.45H882.671V542.45H883.671ZM883.671 573V574H884.671V573H883.671ZM855.721 573H854.721V574H855.721V573ZM855.721 567.41V566.41H854.721V567.41H855.721ZM868.331 567.41V568.41H869.331V567.41H868.331ZM868.331 482.13V481.13H867.331V482.13H868.331ZM921.241 539.98L920.955 539.022L919.607 539.423L920.429 540.565L921.241 539.98ZM941.001 567.41L940.189 567.995L940.489 568.41H941.001V567.41ZM920.461 524.51L919.808 523.752L919.808 523.752L920.461 524.51ZM920.331 499.42L919.756 500.238L919.763 500.243L919.771 500.249L920.331 499.42ZM883.671 496.04V495.04H882.671V496.04H883.671ZM883.671 528.54H882.671V529.54H883.671V528.54ZM952.611 567.41V573H954.611V567.41H952.611ZM953.611 572H925.531V574H953.611V572ZM926.346 572.421L904.636 541.871L903.006 543.029L924.716 573.579L926.346 572.421ZM903.821 541.45H883.671V543.45H903.821V541.45ZM882.671 542.45V573H884.671V542.45H882.671ZM883.671 572H855.721V574H883.671V572ZM856.721 573V567.41H854.721V573H856.721ZM855.721 568.41H868.331V566.41H855.721V568.41ZM869.331 567.41V482.13H867.331V567.41H869.331ZM868.331 483.13H902.131V481.13H868.331V483.13ZM902.131 483.13C915.936 483.13 925.575 485.47 931.284 489.937L932.517 488.362C926.266 483.47 916.059 481.13 902.131 481.13V483.13ZM931.284 489.937C936.943 494.366 939.871 501.516 939.871 511.64H941.871C941.871 501.137 938.819 493.294 932.517 488.362L931.284 489.937ZM939.871 511.64C939.871 518.995 938.266 524.889 935.141 529.401C932.022 533.904 927.323 537.124 920.955 539.022L921.526 540.938C928.245 538.936 933.361 535.483 936.785 530.539C940.203 525.605 941.871 519.279 941.871 511.64H939.871ZM920.429 540.565L940.189 567.995L941.812 566.825L922.052 539.395L920.429 540.565ZM941.001 568.41H953.611V566.41H941.001V568.41ZM902.781 529.54C907.16 529.54 910.879 529.201 913.923 528.507C916.96 527.815 919.385 526.756 921.113 525.268L919.808 523.752C918.416 524.951 916.335 525.906 913.478 526.558C910.629 527.207 907.069 527.54 902.781 527.54V529.54ZM921.113 525.268C924.536 522.32 926.141 517.695 926.141 511.64H924.141C924.141 517.372 922.625 521.326 919.808 523.752L921.113 525.268ZM926.141 511.64C926.141 505.517 924.499 501.029 920.891 498.591L919.771 500.249C922.576 502.144 924.141 505.803 924.141 511.64H926.141ZM920.906 498.602C917.426 496.156 911.426 495.04 903.171 495.04V497.04C911.382 497.04 916.823 498.177 919.756 500.238L920.906 498.602ZM903.171 495.04H883.671V497.04H903.171V495.04ZM882.671 496.04V528.54H884.671V496.04H882.671ZM883.671 529.54H902.781V527.54H883.671V529.54ZM1042.08 567.41H1043.08V566.41H1042.08V567.41ZM1042.08 573V574H1043.08V573H1042.08ZM950.301 573H949.301V574H950.301V573ZM950.301 567.41V566.41H949.301V567.41H950.301ZM962.911 567.41V568.41H963.911V567.41H962.911ZM962.911 482.13V481.13H961.911V482.13H962.911ZM1014.13 484.34L1013.81 485.289L1013.82 485.29L1014.13 484.34ZM1024.14 490.32L1023.38 490.973L1023.39 490.979L1023.39 490.984L1024.14 490.32ZM1023.62 522.04L1024.21 522.845L1024.22 522.839L1024.23 522.833L1023.62 522.04ZM1020.24 524.38L1020.63 525.299L1020.69 525.277L1020.74 525.248L1020.24 524.38ZM1016.99 525.81L1016.58 524.896L1013.78 526.142L1016.78 526.788L1016.99 525.81ZM1030.38 533.48L1029.62 534.125L1029.62 534.134L1029.63 534.143L1030.38 533.48ZM1025.31 567.41L1024.76 566.578L1022.01 568.41H1025.31V567.41ZM978.251 558.83H977.251V559.83H978.251V558.83ZM1015.17 556.23L1015.68 557.092L1015.69 557.087L1015.17 556.23ZM978.251 534V533H977.251V534H978.251ZM978.251 519.83H977.251V520.83H978.251V519.83ZM1010.36 499.16L1009.78 499.976L1009.78 499.976L1010.36 499.16ZM978.251 496.3V495.3H977.251V496.3H978.251ZM1041.08 567.41V573H1043.08V567.41H1041.08ZM1042.08 572H950.301V574H1042.08V572ZM951.301 573V567.41H949.301V573H951.301ZM950.301 568.41H962.911V566.41H950.301V568.41ZM963.911 567.41V482.13H961.911V567.41H963.911ZM962.911 483.13H998.271V481.13H962.911V483.13ZM998.271 483.13C1004.35 483.13 1009.52 483.858 1013.81 485.289L1014.45 483.391C1009.9 481.875 1004.5 481.13 998.271 481.13V483.13ZM1013.82 485.29C1018.22 486.73 1021.38 488.645 1023.38 490.973L1024.9 489.667C1022.57 486.969 1019.05 484.896 1014.44 483.389L1013.82 485.29ZM1023.39 490.984C1027.4 495.494 1029.38 500.548 1029.38 506.18H1031.38C1031.38 500.026 1029.2 494.506 1024.89 489.656L1023.39 490.984ZM1029.38 506.18C1029.38 513.062 1027.21 518.017 1023.01 521.247L1024.23 522.833C1029.04 519.13 1031.38 513.511 1031.38 506.18H1029.38ZM1023.03 521.235C1021.37 522.453 1020.29 523.198 1019.74 523.512L1020.74 525.248C1021.4 524.868 1022.57 524.053 1024.21 522.845L1023.03 521.235ZM1019.85 523.461C1019.23 523.724 1018.14 524.203 1016.58 524.896L1017.4 526.724C1018.96 526.03 1020.03 525.556 1020.63 525.299L1019.85 523.461ZM1016.78 526.788C1022.23 527.961 1026.48 530.416 1029.62 534.125L1031.14 532.835C1027.69 528.744 1023.02 526.086 1017.2 524.832L1016.78 526.788ZM1029.63 534.143C1032.83 537.751 1034.45 542.272 1034.45 547.78H1036.45C1036.45 541.848 1034.69 536.836 1031.13 532.817L1029.63 534.143ZM1034.45 547.78C1034.45 556.048 1031.22 562.269 1024.76 566.578L1025.87 568.242C1032.92 563.538 1036.45 556.672 1036.45 547.78H1034.45ZM1025.31 568.41H1042.08V566.41H1025.31V568.41ZM978.251 559.83H1002.3V557.83H978.251V559.83ZM1002.3 559.83C1008.01 559.83 1012.51 558.957 1015.68 557.092L1014.66 555.368C1011.94 556.97 1007.86 557.83 1002.3 557.83V559.83ZM1015.69 557.087C1019.13 555.019 1020.72 551.227 1020.72 546.09H1018.72C1018.72 550.833 1017.28 553.801 1014.66 555.373L1015.69 557.087ZM1020.72 546.09C1020.72 541.74 1018.95 538.384 1015.41 536.174C1011.94 534.013 1006.88 533 1000.35 533V535C1006.74 535 1011.35 536.002 1014.35 537.871C1017.26 539.691 1018.72 542.38 1018.72 546.09H1020.72ZM1000.35 533H978.251V535H1000.35V533ZM977.251 534V558.83H979.251V534H977.251ZM978.251 520.83H997.751V518.83H978.251V520.83ZM997.751 520.83C1003.38 520.83 1007.78 519.879 1010.79 517.83C1013.88 515.733 1015.39 512.573 1015.39 508.52H1013.39C1013.39 512.007 1012.13 514.502 1009.67 516.175C1007.14 517.896 1003.22 518.83 997.751 518.83V520.83ZM1015.39 508.52C1015.39 503.975 1013.97 500.495 1010.94 498.344L1009.78 499.976C1012.12 501.638 1013.39 504.398 1013.39 508.52H1015.39ZM1010.94 498.344C1008 496.259 1003.59 495.3 997.881 495.3V497.3C1003.44 497.3 1007.35 498.247 1009.78 499.976L1010.94 498.344ZM997.881 495.3H978.251V497.3H997.881V495.3ZM977.251 496.3V519.83H979.251V496.3H977.251ZM1139.98 567.41H1140.98V566.41H1139.98V567.41ZM1139.98 573V574H1140.98V573H1139.98ZM1111.9 573L1111.08 573.579L1111.38 574H1111.9V573ZM1090.19 542.45L1091 541.871L1090.7 541.45H1090.19V542.45ZM1070.04 542.45V541.45H1069.04V542.45H1070.04ZM1070.04 573V574H1071.04V573H1070.04ZM1042.09 573H1041.09V574H1042.09V573ZM1042.09 567.41V566.41H1041.09V567.41H1042.09ZM1054.7 567.41V568.41H1055.7V567.41H1054.7ZM1054.7 482.13V481.13H1053.7V482.13H1054.7ZM1107.61 539.98L1107.32 539.022L1105.97 539.423L1106.8 540.565L1107.61 539.98ZM1127.37 567.41L1126.56 567.995L1126.86 568.41H1127.37V567.41ZM1106.83 524.51L1106.18 523.752L1106.18 523.752L1106.83 524.51ZM1106.7 499.42L1106.12 500.238L1106.13 500.243L1106.14 500.249L1106.7 499.42ZM1070.04 496.04V495.04H1069.04V496.04H1070.04ZM1070.04 528.54H1069.04V529.54H1070.04V528.54ZM1138.98 567.41V573H1140.98V567.41H1138.98ZM1139.98 572H1111.9V574H1139.98V572ZM1112.71 572.421L1091 541.871L1089.37 543.029L1111.08 573.579L1112.71 572.421ZM1090.19 541.45H1070.04V543.45H1090.19V541.45ZM1069.04 542.45V573H1071.04V542.45H1069.04ZM1070.04 572H1042.09V574H1070.04V572ZM1043.09 573V567.41H1041.09V573H1043.09ZM1042.09 568.41H1054.7V566.41H1042.09V568.41ZM1055.7 567.41V482.13H1053.7V567.41H1055.7ZM1054.7 483.13H1088.5V481.13H1054.7V483.13ZM1088.5 483.13C1102.3 483.13 1111.94 485.47 1117.65 489.937L1118.88 488.362C1112.63 483.47 1102.43 481.13 1088.5 481.13V483.13ZM1117.65 489.937C1123.31 494.366 1126.24 501.516 1126.24 511.64H1128.24C1128.24 501.137 1125.19 493.294 1118.88 488.362L1117.65 489.937ZM1126.24 511.64C1126.24 518.995 1124.63 524.889 1121.51 529.401C1118.39 533.904 1113.69 537.124 1107.32 539.022L1107.89 540.938C1114.61 538.936 1119.73 535.483 1123.15 530.539C1126.57 525.605 1128.24 519.279 1128.24 511.64H1126.24ZM1106.8 540.565L1126.56 567.995L1128.18 566.825L1108.42 539.395L1106.8 540.565ZM1127.37 568.41H1139.98V566.41H1127.37V568.41ZM1089.15 529.54C1093.53 529.54 1097.25 529.201 1100.29 528.507C1103.33 527.815 1105.75 526.756 1107.48 525.268L1106.18 523.752C1104.78 524.951 1102.7 525.906 1099.85 526.558C1097 527.207 1093.44 527.54 1089.15 527.54V529.54ZM1107.48 525.268C1110.9 522.32 1112.51 517.695 1112.51 511.64H1110.51C1110.51 517.372 1108.99 521.326 1106.18 523.752L1107.48 525.268ZM1112.51 511.64C1112.51 505.517 1110.87 501.029 1107.26 498.591L1106.14 500.249C1108.94 502.144 1110.51 505.803 1110.51 511.64H1112.51ZM1107.27 498.602C1103.79 496.156 1097.79 495.04 1089.54 495.04V497.04C1097.75 497.04 1103.19 498.177 1106.12 500.238L1107.27 498.602ZM1089.54 495.04H1070.04V497.04H1089.54V495.04ZM1069.04 496.04V528.54H1071.04V496.04H1069.04ZM1070.04 529.54H1089.15V527.54H1070.04V529.54ZM1149.28 567.41V568.41H1150.28V567.41H1149.28ZM1149.28 482.13V481.13H1148.28V482.13H1149.28ZM1164.62 482.13H1165.62V481.13H1164.62V482.13ZM1164.62 567.41H1163.62V568.41H1164.62V567.41ZM1177.23 567.41H1178.23V566.41H1177.23V567.41ZM1177.23 573V574H1178.23V573H1177.23ZM1136.67 573H1135.67V574H1136.67V573ZM1136.67 567.41V566.41H1135.67V567.41H1136.67ZM1150.28 567.41V482.13H1148.28V567.41H1150.28ZM1149.28 483.13H1164.62V481.13H1149.28V483.13ZM1163.62 482.13V567.41H1165.62V482.13H1163.62ZM1164.62 568.41H1177.23V566.41H1164.62V568.41ZM1176.23 567.41V573H1178.23V567.41H1176.23ZM1177.23 572H1136.67V574H1177.23V572ZM1137.67 573V567.41H1135.67V573H1137.67ZM1136.67 568.41H1149.28V566.41H1136.67V568.41ZM1278.83 567.41H1279.83V566.41H1278.83V567.41ZM1278.83 573V574H1279.83V573H1278.83ZM1177.17 573H1176.17V574H1177.17V573ZM1177.17 567.41V566.41H1176.17V567.41H1177.17ZM1189.78 567.41V568.41H1190.78V567.41H1189.78ZM1189.78 482.13V481.13H1188.78V482.13H1189.78ZM1258.55 494.09L1257.87 494.829L1257.88 494.833L1258.55 494.09ZM1248.8 567.41L1248.37 566.508L1248.8 568.41V567.41ZM1205.12 496.3V495.3H1204.12V496.3H1205.12ZM1205.12 558.57H1204.12V559.57H1205.12V558.57ZM1247.37 550.77L1248.03 551.515L1248.03 551.514L1247.37 550.77ZM1277.83 567.41V573H1279.83V567.41H1277.83ZM1278.83 572H1177.17V574H1278.83V572ZM1178.17 573V567.41H1176.17V573H1178.17ZM1177.17 568.41H1189.78V566.41H1177.17V568.41ZM1190.78 567.41V482.13H1188.78V567.41H1190.78ZM1189.78 483.13H1220.98V481.13H1189.78V483.13ZM1220.98 483.13C1237.11 483.13 1249.36 487.078 1257.87 494.829L1259.22 493.351C1250.22 485.155 1237.42 481.13 1220.98 481.13V483.13ZM1257.88 494.833C1266.37 502.489 1270.68 513.329 1270.68 527.5H1272.68C1272.68 512.898 1268.22 501.464 1259.22 493.347L1257.88 494.833ZM1270.68 527.5C1270.68 537.034 1268.8 545.009 1265.09 551.475C1261.39 557.933 1255.83 562.946 1248.37 566.508L1249.23 568.312C1257.02 564.594 1262.9 559.316 1266.82 552.47C1270.74 545.632 1272.68 537.293 1272.68 527.5H1270.68ZM1248.8 568.41H1278.83V566.41H1248.8V568.41ZM1257.21 527.5C1257.21 516.908 1254.17 508.792 1247.93 503.347C1241.71 497.924 1232.5 495.3 1220.46 495.3V497.3C1232.25 497.3 1240.91 499.876 1246.61 504.853C1252.29 509.808 1255.21 517.292 1255.21 527.5H1257.21ZM1220.46 495.3H1205.12V497.3H1220.46V495.3ZM1204.12 496.3V558.57H1206.12V496.3H1204.12ZM1205.12 559.57H1222.15V557.57H1205.12V559.57ZM1222.15 559.57C1233.3 559.57 1241.98 556.936 1248.03 551.515L1246.7 550.025C1241.14 555.004 1233.01 557.57 1222.15 557.57V559.57ZM1248.03 551.514C1254.2 545.986 1257.21 537.923 1257.21 527.5H1255.21C1255.21 537.531 1252.32 544.98 1246.7 550.026L1248.03 551.514ZM1377.27 567.41H1378.27V566.41H1377.27V567.41ZM1377.27 573V574H1378.27V573H1377.27ZM1278.86 573H1277.86V574H1278.86V573ZM1278.86 567.41V566.41H1277.86V567.41H1278.86ZM1310.32 567.41V568.41L1310.77 566.518L1310.32 567.41ZM1292.25 550.64L1291.39 551.155L1291.39 551.162L1292.25 550.64ZM1299.4 492.92L1300.08 493.651L1300.08 493.647L1299.4 492.92ZM1365.57 491.36L1366.38 491.933L1366.9 491.2L1366.23 490.609L1365.57 491.36ZM1357.38 503.06L1356.73 503.821L1357.56 504.535L1358.19 503.633L1357.38 503.06ZM1346.59 496.82L1346.26 497.766L1346.28 497.771L1346.29 497.775L1346.59 496.82ZM1310.84 503.32L1310.17 502.573L1310.17 502.577L1310.84 503.32ZM1310.71 549.34L1310.01 550.057L1310.01 550.062L1310.71 549.34ZM1354.39 552.46L1354.93 553.302L1355.39 553.006V552.46H1354.39ZM1354.39 527.5V526.5H1353.39V527.5H1354.39ZM1369.73 527.5H1370.73V526.5H1369.73V527.5ZM1369.73 558.57L1370.47 559.24L1370.73 558.955V558.57H1369.73ZM1358.03 567.41L1357.57 566.519L1358.03 568.41V567.41ZM1376.27 567.41V573H1378.27V567.41H1376.27ZM1377.27 572H1278.86V574H1377.27V572ZM1279.86 573V567.41H1277.86V573H1279.86ZM1278.86 568.41H1310.32V566.41H1278.86V568.41ZM1310.77 566.518C1303.4 562.79 1297.51 557.33 1293.1 550.118L1291.39 551.162C1295.99 558.683 1302.15 564.403 1309.86 568.302L1310.77 566.518ZM1293.1 550.126C1288.78 542.927 1286.62 534.787 1286.62 525.68H1284.62C1284.62 535.12 1286.87 543.62 1291.39 551.154L1293.1 550.126ZM1286.62 525.68C1286.62 512.68 1291.11 502.03 1300.08 493.651L1298.71 492.189C1289.31 500.97 1284.62 512.16 1284.62 525.68H1286.62ZM1300.08 493.647C1309.08 485.163 1319.96 480.92 1332.81 480.92V478.92C1319.47 478.92 1308.09 483.344 1298.71 492.193L1300.08 493.647ZM1332.81 480.92C1345.77 480.92 1356.45 484.667 1364.9 492.111L1366.23 490.609C1357.35 482.799 1346.19 478.92 1332.81 478.92V480.92ZM1364.75 490.787L1356.56 502.487L1358.19 503.633L1366.38 491.933L1364.75 490.787ZM1358.02 502.299C1354.39 499.197 1350.68 497.04 1346.88 495.865L1346.29 497.775C1349.77 498.854 1353.25 500.856 1356.73 503.821L1358.02 502.299ZM1346.91 495.874C1343.23 494.617 1338.95 494 1334.11 494V496C1338.79 496 1342.84 496.597 1346.26 497.766L1346.91 495.874ZM1334.11 494C1324.62 494 1316.61 496.845 1310.17 502.573L1311.5 504.067C1317.54 498.702 1325.05 496 1334.11 496V494ZM1310.17 502.577C1303.77 508.345 1300.61 516.217 1300.61 526.07H1302.61C1302.61 516.683 1305.6 509.389 1311.51 504.063L1310.17 502.577ZM1300.61 526.07C1300.61 535.92 1303.72 543.949 1310.01 550.057L1311.4 548.623C1305.56 542.944 1302.61 535.46 1302.61 526.07H1300.61ZM1310.01 550.062C1316.27 556.051 1323.84 559.05 1332.68 559.05V557.05C1324.35 557.05 1317.27 554.242 1311.4 548.618L1310.01 550.062ZM1332.68 559.05C1341.48 559.05 1348.92 557.155 1354.93 553.302L1353.85 551.618C1348.24 555.218 1341.2 557.05 1332.68 557.05V559.05ZM1355.39 552.46V527.5H1353.39V552.46H1355.39ZM1354.39 528.5H1369.73V526.5H1354.39V528.5ZM1368.73 527.5V558.57H1370.73V527.5H1368.73ZM1368.98 557.9C1365.86 561.356 1362.06 564.23 1357.57 566.519L1358.48 568.301C1363.17 565.91 1367.17 562.891 1370.47 559.24L1368.98 557.9ZM1358.03 568.41H1377.27V566.41H1358.03V568.41ZM1389.85 567.41V568.41H1390.85V567.41H1389.85ZM1389.85 482.13V481.13H1388.85V482.13H1389.85ZM1453.68 482.13H1454.68V481.13H1453.68V482.13ZM1453.68 496.56V497.56H1454.68V496.56H1453.68ZM1405.19 496.56V495.56H1404.19V496.56H1405.19ZM1405.19 520.61H1404.19V521.61H1405.19V520.61ZM1448.74 520.61H1449.74V519.61H1448.74V520.61ZM1448.74 534.26V535.26H1449.74V534.26H1448.74ZM1405.19 534.26V533.26H1404.19V534.26H1405.19ZM1405.19 558.57H1404.19V559.57H1405.19V558.57ZM1455.24 558.57H1456.24V557.57H1455.24V558.57ZM1455.24 567.41H1454.24V568.41H1455.24V567.41ZM1467.85 567.41H1468.85V566.41H1467.85V567.41ZM1467.85 573V574H1468.85V573H1467.85ZM1377.24 573H1376.24V574H1377.24V573ZM1377.24 567.41V566.41H1376.24V567.41H1377.24ZM1390.85 567.41V482.13H1388.85V567.41H1390.85ZM1389.85 483.13H1453.68V481.13H1389.85V483.13ZM1452.68 482.13V496.56H1454.68V482.13H1452.68ZM1453.68 495.56H1405.19V497.56H1453.68V495.56ZM1404.19 496.56V520.61H1406.19V496.56H1404.19ZM1405.19 521.61H1448.74V519.61H1405.19V521.61ZM1447.74 520.61V534.26H1449.74V520.61H1447.74ZM1448.74 533.26H1405.19V535.26H1448.74V533.26ZM1404.19 534.26V558.57H1406.19V534.26H1404.19ZM1405.19 559.57H1455.24V557.57H1405.19V559.57ZM1454.24 558.57V567.41H1456.24V558.57H1454.24ZM1455.24 568.41H1467.85V566.41H1455.24V568.41ZM1466.85 567.41V573H1468.85V567.41H1466.85ZM1467.85 572H1377.24V574H1467.85V572ZM1378.24 573V567.41H1376.24V573H1378.24ZM1377.24 568.41H1389.85V566.41H1377.24V568.41Z" fill="black" mask="url(#path-33-outside-1_0_1)"/>
</g>
<defs>
<filter id="filter0_d_0_1" x="423" y="479.922" width="1048.86" height="101.078" filterUnits="userSpaceOnUse" color-interpolation-filters="sRGB">
<feFlood flood-opacity="0" result="BackgroundImageFix"/>
<feColorMatrix in="SourceAlpha" type="matrix" values="0 0 0 0 0 0 0 0 0 0 0 0 0 0 0 0 0 0 127 0" result="hardAlpha"/>
<feOffset dy="4"/>
<feGaussianBlur stdDeviation="2"/>
<feComposite in2="hardAlpha" operator="out"/>
<feColorMatrix type="matrix" values="0 0 0 0 0 0 0 0 0 0 0 0 0 0 0 0 0 0 0.25 0"/>
<feBlend mode="normal" in2="BackgroundImageFix" result="effect1_dropShadow_0_1"/>
<feBlend mode="normal" in="SourceGraphic" in2="effect1_dropShadow_0_1" result="shape"/>
</filter>
<linearGradient id="paint0_linear_0_1" x1="960.192" y1="148.828" x2="960.192" y2="208.452" gradientUnits="userSpaceOnUse">
<stop offset="0.421875" stop-color="#C8ACD6"/>
<stop offset="1" stop-color="white"/>
</linearGradient>
<linearGradient id="paint1_linear_0_1" x1="946.403" y1="387.328" x2="946.403" y2="446.952" gradientUnits="userSpaceOnUse">
<stop offset="0.369792" stop-color="#C8ACD6"/>
<stop offset="1" stop-color="#D8C7F1"/>
</linearGradient>
<linearGradient id="paint2_linear_0_1" x1="1222.19" y1="387.328" x2="1222.19" y2="446.952" gradientUnits="userSpaceOnUse">
<stop offset="0.369792" stop-color="#C8ACD6"/>
<stop offset="1" stop-color="#D8C7F1"/>
</linearGradient>
<linearGradient id="paint3_linear_0_1" x1="27.5786" y1="0" x2="27.5786" y2="59.6239" gradientUnits="userSpaceOnUse">
<stop offset="0.369792" stop-color="#C8ACD6"/>
<stop offset="1" stop-color="#D8C7F1"/>
</linearGradient>
</defs>
</svg>
