<svg width="1737" height="723" viewBox="0 0 1737 723" fill="none" xmlns="http://www.w3.org/2000/svg">
<path d="M42 41H1695V39H42V41ZM1696 42V681H1698V42H1696ZM1695 682H42V684H1695V682ZM41 681V42H39V681H41ZM42 682C41.4477 682 41 681.552 41 681H39C39 682.657 40.3431 684 42 684V682ZM1696 681C1696 681.552 1695.55 682 1695 682V684C1696.66 684 1698 682.657 1698 681H1696ZM1695 41C1695.55 41 1696 41.4477 1696 42H1698C1698 40.3432 1696.66 39 1695 39V41ZM42 39C40.3432 39 39 40.3431 39 42H41C41 41.4477 41.4477 41 42 41V39Z" fill="white" fill-opacity="0.1"/>
<rect x="627" y="298" width="87" height="19" fill="#2E236C"/>
<rect x="801" y="298" width="88" height="19" fill="#2E236C"/>
<rect x="976" y="298" width="88" height="19" fill="#433D8B"/>
<rect x="714" y="298" width="87" height="19" fill="#433D8B"/>
<rect x="540" y="298" width="87" height="19" fill="#4A249D"/>
<rect x="889" y="298" width="87" height="19" fill="#433D8B"/>
<rect x="1150" y="298" width="88" height="19" fill="#4A249D"/>
<rect x="1064" y="298" width="86" height="19" fill="#7E30E1"/>
<rect x="433" y="239" width="929" height="38" fill="url(#paint0_linear_0_1)"/>
<rect x="871" y="396" width="35" height="38" fill="url(#paint1_linear_0_1)"/>
<rect x="1046" y="396" width="35" height="38" fill="url(#paint2_linear_0_1)"/>
<rect width="35" height="38" transform="matrix(-1 0 0 1 731 396)" fill="url(#paint3_linear_0_1)"/>
<path d="M739.627 326C739.542 326.096 739.457 326.192 739.373 326.288C723.689 344.179 714 368.809 714 396H731.499C731.499 374.131 739.333 354.332 752 340L739.627 326Z" fill="#7E30E1"/>
<path d="M914.627 326C914.542 326.096 914.457 326.192 914.373 326.288C898.689 344.179 889 368.809 889 396H906.499C906.499 374.131 914.333 354.332 927 340L914.627 326Z" fill="#F0F0F0"/>
<path d="M1088.95 326C1088.87 326.096 1088.79 326.192 1088.71 326.288C1073.43 344.179 1064 368.809 1064 396H1081.04C1081.04 374.131 1088.67 354.332 1101 340L1088.95 326Z" fill="#7E30E1"/>
<path d="M688.373 326C688.458 326.096 688.543 326.192 688.627 326.288C704.311 344.179 714 368.809 714 396H696.501C696.501 374.131 688.667 354.332 676 340L688.373 326Z" fill="#433D8B"/>
<path d="M862.699 326C862.786 326.096 862.873 326.192 862.959 326.288C879.056 344.179 889 368.809 889 396H871.041C871.041 374.131 863 354.332 850 340L862.699 326Z" fill="#4A249D"/>
<path d="M1037.7 326C1037.79 326.096 1037.87 326.192 1037.96 326.288C1054.06 344.179 1064 368.809 1064 396H1046.04C1046.04 374.131 1038 354.332 1025 340L1037.7 326Z" fill="#7E30E1"/>
<path d="M752.2 340C764.689 326 781.942 317.341 801 317.341V298C777.178 298 755.611 308.824 740 326.324L752.2 340Z" fill="#F0F0F0"/>
<path d="M926.4 340C939.094 326 956.63 317.341 976 317.341V298C951.787 298 929.867 308.824 914 326.324L926.4 340Z" fill="#7E30E1"/>
<path d="M1101.2 340C1113.69 326 1130.94 317.341 1150 317.341V298C1126.18 298 1104.61 308.824 1089 326.324L1101.2 340Z" fill="#F0F0F0"/>
<path d="M675.8 340C663.311 326 646.058 317.341 627 317.341V298C650.822 298 672.389 308.824 688 326.324L675.8 340Z" fill="#4A249D"/>
<path d="M850.6 340C837.906 326 820.37 317.341 801 317.341V298C825.213 298 847.133 308.824 863 326.324L850.6 340Z" fill="#7E30E1"/>
<path d="M1024.8 340C1012.31 326 995.058 317.341 976 317.341V298C999.822 298 1021.39 308.824 1037 326.324L1024.8 340Z" fill="#4A249D"/>
<rect x="433" y="277" width="929" height="21" fill="#433D8B"/>
<rect x="932.426" y="277" width="87.312" height="21" fill="#7E30E1"/>
<rect x="433" y="221" width="929" height="19" fill="#7E30E1"/>
<rect x="433" y="240" width="929" height="19" fill="#49108B"/>
<rect x="757.801" y="221" width="87.312" height="19" fill="#433D8B"/>
<rect x="539.52" y="221" width="87.312" height="19" fill="#433D8B"/>
<rect x="1150.7" y="221" width="87.312" height="19" fill="#433D8B"/>
<g filter="url(#filter0_d_0_1)">
<mask id="path-34-outside-1_0_1" maskUnits="userSpaceOnUse" x="332" y="481" width="1123" height="103" fill="black">
<rect fill="white" x="332" y="481" width="1123" height="103"/>
<path d="M442.48 576.98V583H333V576.98H346.58V485.14H380.18C397.727 485.14 411.213 489.433 420.64 498.02C430.067 506.513 434.78 518.507 434.78 534C434.78 554.813 426.567 569.14 410.14 576.98H442.48ZM418.12 534C418.12 511.6 405.287 500.4 379.62 500.4H363.1V567.46H381.44C393.293 567.46 402.347 564.66 408.6 559.06C414.947 553.367 418.12 545.013 418.12 534ZM560.112 576.98V583H442.512V576.98H474.572C466.918 572.593 460.852 566.573 456.372 558.92C451.985 551.267 449.792 542.727 449.792 533.3C449.792 518.927 454.738 506.933 464.632 497.32C474.525 487.613 486.752 482.76 501.312 482.76C515.872 482.76 528.098 487.613 537.992 497.32C547.885 506.933 552.832 518.927 552.832 533.3C552.832 542.633 550.592 551.173 546.112 558.92C541.725 566.667 535.705 572.687 528.052 576.98H560.112ZM525.812 508.24C519.185 501.333 511.018 497.88 501.312 497.88C491.605 497.88 483.392 501.333 476.672 508.24C470.045 515.147 466.732 523.547 466.732 533.44C466.732 543.24 470.045 551.593 476.672 558.5C483.392 565.407 491.605 568.86 501.312 568.86C511.018 568.86 519.185 565.407 525.812 558.5C532.532 551.593 535.892 543.24 535.892 533.44C535.892 523.547 532.532 515.147 525.812 508.24ZM573.67 576.98V485.14H590.19L647.03 558.22V485.14H663.55V576.98H677.13V583H645.63L590.19 511.6V583H560.09V576.98H573.67ZM794.721 576.98V583H677.121V576.98H709.181C701.528 572.593 695.461 566.573 690.981 558.92C686.594 551.267 684.401 542.727 684.401 533.3C684.401 518.927 689.348 506.933 699.241 497.32C709.134 487.613 721.361 482.76 735.921 482.76C750.481 482.76 762.708 487.613 772.601 497.32C782.494 506.933 787.441 518.927 787.441 533.3C787.441 542.633 785.201 551.173 780.721 558.92C776.334 566.667 770.314 572.687 762.661 576.98H794.721ZM760.421 508.24C753.794 501.333 745.628 497.88 735.921 497.88C726.214 497.88 718.001 501.333 711.281 508.24C704.654 515.147 701.341 523.547 701.341 533.44C701.341 543.24 704.654 551.593 711.281 558.5C718.001 565.407 726.214 568.86 735.921 568.86C745.628 568.86 753.794 565.407 760.421 558.5C767.141 551.593 770.501 543.24 770.501 533.44C770.501 523.547 767.141 515.147 760.421 508.24ZM900.119 576.98V583H869.879L846.499 550.1H824.799V583H794.699V576.98H808.279V485.14H844.679C859.613 485.14 870.299 487.66 876.739 492.7C883.179 497.74 886.399 505.813 886.399 516.92C886.399 533.067 879.353 543.24 865.259 547.44L886.539 576.98H900.119ZM845.379 535.12C854.713 535.12 861.059 533.673 864.419 530.78C867.779 527.887 869.459 523.267 869.459 516.92C869.459 510.48 867.733 506.093 864.279 503.76C860.826 501.333 854.666 500.12 845.799 500.12H824.799V535.12H845.379ZM995.395 576.98V583H896.555V576.98H910.135V485.14H948.215C954.841 485.14 960.535 485.933 965.295 487.52C970.148 489.107 973.741 491.253 976.075 493.96C980.555 499 982.795 504.693 982.795 511.04C982.795 518.693 980.368 524.387 975.515 528.12C973.741 529.427 972.528 530.267 971.875 530.64C971.221 530.92 970.055 531.433 968.375 532.18C974.441 533.487 979.248 536.24 982.795 540.44C986.435 544.547 988.255 549.68 988.255 555.84C988.255 565.08 984.615 572.127 977.335 576.98H995.395ZM926.655 567.74H952.555C958.621 567.74 963.241 566.807 966.415 564.94C969.681 562.98 971.315 559.34 971.315 554.02C971.315 545.34 964.361 541 950.455 541H926.655V567.74ZM926.655 525.74H947.655C959.601 525.74 965.575 521.68 965.575 513.56C965.575 508.893 964.128 505.533 961.235 503.48C958.341 501.427 953.861 500.4 947.795 500.4H926.655V525.74ZM1100.82 576.98V583H1070.58L1047.2 550.1H1025.5V583H995.402V576.98H1008.98V485.14H1045.38C1060.32 485.14 1071 487.66 1077.44 492.7C1083.88 497.74 1087.1 505.813 1087.1 516.92C1087.1 533.067 1080.06 543.24 1065.96 547.44L1087.24 576.98H1100.82ZM1046.08 535.12C1055.42 535.12 1061.76 533.673 1065.12 530.78C1068.48 527.887 1070.16 523.267 1070.16 516.92C1070.16 510.48 1068.44 506.093 1064.98 503.76C1061.53 501.333 1055.37 500.12 1046.5 500.12H1025.5V535.12H1046.08ZM1110.84 576.98V485.14H1127.36V576.98H1140.94V583H1097.26V576.98H1110.84ZM1250.35 576.98V583H1140.87V576.98H1154.45V485.14H1188.05C1205.6 485.14 1219.08 489.433 1228.51 498.02C1237.94 506.513 1242.65 518.507 1242.65 534C1242.65 554.813 1234.44 569.14 1218.01 576.98H1250.35ZM1225.99 534C1225.99 511.6 1213.16 500.4 1187.49 500.4H1170.97V567.46H1189.31C1201.16 567.46 1210.22 564.66 1216.47 559.06C1222.82 553.367 1225.99 545.013 1225.99 534ZM1356.36 576.98V583H1250.38V576.98H1284.26C1276.14 572.873 1269.66 566.853 1264.8 558.92C1260.04 550.987 1257.66 542.027 1257.66 532.04C1257.66 517.76 1262.61 506 1272.5 496.76C1282.4 487.427 1294.39 482.76 1308.48 482.76C1322.67 482.76 1334.43 486.867 1343.76 495.08L1334.94 507.68C1331.12 504.413 1327.24 502.173 1323.32 500.96C1319.5 499.653 1315.02 499 1309.88 499C1299.9 499 1291.54 501.987 1284.82 507.96C1278.2 513.933 1274.88 522.1 1274.88 532.46C1274.88 542.82 1278.15 551.173 1284.68 557.52C1291.22 563.773 1299.1 566.9 1308.34 566.9C1317.68 566.9 1325.47 564.893 1331.72 560.88V534H1348.24V567.46C1344.79 571.287 1340.59 574.46 1335.64 576.98H1356.36ZM1369.92 576.98V485.14H1438.66V500.68H1386.44V526.58H1433.34V541.28H1386.44V567.46H1440.34V576.98H1453.92V583H1356.34V576.98H1369.92Z"/>
</mask>
<path d="M442.48 576.98V583H333V576.98H346.58V485.14H380.18C397.727 485.14 411.213 489.433 420.64 498.02C430.067 506.513 434.78 518.507 434.78 534C434.78 554.813 426.567 569.14 410.14 576.98H442.48ZM418.12 534C418.12 511.6 405.287 500.4 379.62 500.4H363.1V567.46H381.44C393.293 567.46 402.347 564.66 408.6 559.06C414.947 553.367 418.12 545.013 418.12 534ZM560.112 576.98V583H442.512V576.98H474.572C466.918 572.593 460.852 566.573 456.372 558.92C451.985 551.267 449.792 542.727 449.792 533.3C449.792 518.927 454.738 506.933 464.632 497.32C474.525 487.613 486.752 482.76 501.312 482.76C515.872 482.76 528.098 487.613 537.992 497.32C547.885 506.933 552.832 518.927 552.832 533.3C552.832 542.633 550.592 551.173 546.112 558.92C541.725 566.667 535.705 572.687 528.052 576.98H560.112ZM525.812 508.24C519.185 501.333 511.018 497.88 501.312 497.88C491.605 497.88 483.392 501.333 476.672 508.24C470.045 515.147 466.732 523.547 466.732 533.44C466.732 543.24 470.045 551.593 476.672 558.5C483.392 565.407 491.605 568.86 501.312 568.86C511.018 568.86 519.185 565.407 525.812 558.5C532.532 551.593 535.892 543.24 535.892 533.44C535.892 523.547 532.532 515.147 525.812 508.24ZM573.67 576.98V485.14H590.19L647.03 558.22V485.14H663.55V576.98H677.13V583H645.63L590.19 511.6V583H560.09V576.98H573.67ZM794.721 576.98V583H677.121V576.98H709.181C701.528 572.593 695.461 566.573 690.981 558.92C686.594 551.267 684.401 542.727 684.401 533.3C684.401 518.927 689.348 506.933 699.241 497.32C709.134 487.613 721.361 482.76 735.921 482.76C750.481 482.76 762.708 487.613 772.601 497.32C782.494 506.933 787.441 518.927 787.441 533.3C787.441 542.633 785.201 551.173 780.721 558.92C776.334 566.667 770.314 572.687 762.661 576.98H794.721ZM760.421 508.24C753.794 501.333 745.628 497.88 735.921 497.88C726.214 497.88 718.001 501.333 711.281 508.24C704.654 515.147 701.341 523.547 701.341 533.44C701.341 543.24 704.654 551.593 711.281 558.5C718.001 565.407 726.214 568.86 735.921 568.86C745.628 568.86 753.794 565.407 760.421 558.5C767.141 551.593 770.501 543.24 770.501 533.44C770.501 523.547 767.141 515.147 760.421 508.24ZM900.119 576.98V583H869.879L846.499 550.1H824.799V583H794.699V576.98H808.279V485.14H844.679C859.613 485.14 870.299 487.66 876.739 492.7C883.179 497.74 886.399 505.813 886.399 516.92C886.399 533.067 879.353 543.24 865.259 547.44L886.539 576.98H900.119ZM845.379 535.12C854.713 535.12 861.059 533.673 864.419 530.78C867.779 527.887 869.459 523.267 869.459 516.92C869.459 510.48 867.733 506.093 864.279 503.76C860.826 501.333 854.666 500.12 845.799 500.12H824.799V535.12H845.379ZM995.395 576.98V583H896.555V576.98H910.135V485.14H948.215C954.841 485.14 960.535 485.933 965.295 487.52C970.148 489.107 973.741 491.253 976.075 493.96C980.555 499 982.795 504.693 982.795 511.04C982.795 518.693 980.368 524.387 975.515 528.12C973.741 529.427 972.528 530.267 971.875 530.64C971.221 530.92 970.055 531.433 968.375 532.18C974.441 533.487 979.248 536.24 982.795 540.44C986.435 544.547 988.255 549.68 988.255 555.84C988.255 565.08 984.615 572.127 977.335 576.98H995.395ZM926.655 567.74H952.555C958.621 567.74 963.241 566.807 966.415 564.94C969.681 562.98 971.315 559.34 971.315 554.02C971.315 545.34 964.361 541 950.455 541H926.655V567.74ZM926.655 525.74H947.655C959.601 525.74 965.575 521.68 965.575 513.56C965.575 508.893 964.128 505.533 961.235 503.48C958.341 501.427 953.861 500.4 947.795 500.4H926.655V525.74ZM1100.82 576.98V583H1070.58L1047.2 550.1H1025.5V583H995.402V576.98H1008.98V485.14H1045.38C1060.32 485.14 1071 487.66 1077.44 492.7C1083.88 497.74 1087.1 505.813 1087.1 516.92C1087.1 533.067 1080.06 543.24 1065.96 547.44L1087.24 576.98H1100.82ZM1046.08 535.12C1055.42 535.12 1061.76 533.673 1065.12 530.78C1068.48 527.887 1070.16 523.267 1070.16 516.92C1070.16 510.48 1068.44 506.093 1064.98 503.76C1061.53 501.333 1055.37 500.12 1046.5 500.12H1025.5V535.12H1046.08ZM1110.84 576.98V485.14H1127.36V576.98H1140.94V583H1097.26V576.98H1110.84ZM1250.35 576.98V583H1140.87V576.98H1154.45V485.14H1188.05C1205.6 485.14 1219.08 489.433 1228.51 498.02C1237.94 506.513 1242.65 518.507 1242.65 534C1242.65 554.813 1234.44 569.14 1218.01 576.98H1250.35ZM1225.99 534C1225.99 511.6 1213.16 500.4 1187.49 500.4H1170.97V567.46H1189.31C1201.16 567.46 1210.22 564.66 1216.47 559.06C1222.82 553.367 1225.99 545.013 1225.99 534ZM1356.36 576.98V583H1250.38V576.98H1284.26C1276.14 572.873 1269.66 566.853 1264.8 558.92C1260.04 550.987 1257.66 542.027 1257.66 532.04C1257.66 517.76 1262.61 506 1272.5 496.76C1282.4 487.427 1294.39 482.76 1308.48 482.76C1322.67 482.76 1334.43 486.867 1343.76 495.08L1334.94 507.68C1331.12 504.413 1327.24 502.173 1323.32 500.96C1319.5 499.653 1315.02 499 1309.88 499C1299.9 499 1291.54 501.987 1284.82 507.96C1278.2 513.933 1274.88 522.1 1274.88 532.46C1274.88 542.82 1278.15 551.173 1284.68 557.52C1291.22 563.773 1299.1 566.9 1308.34 566.9C1317.68 566.9 1325.47 564.893 1331.72 560.88V534H1348.24V567.46C1344.79 571.287 1340.59 574.46 1335.64 576.98H1356.36ZM1369.92 576.98V485.14H1438.66V500.68H1386.44V526.58H1433.34V541.28H1386.44V567.46H1440.34V576.98H1453.92V583H1356.34V576.98H1369.92Z" fill="#F0F0F0"/>
<path d="M442.48 576.98H443.48V575.98H442.48V576.98ZM442.48 583V584H443.48V583H442.48ZM333 583H332V584H333V583ZM333 576.98V575.98H332V576.98H333ZM346.58 576.98V577.98H347.58V576.98H346.58ZM346.58 485.14V484.14H345.58V485.14H346.58ZM420.64 498.02L419.967 498.759L419.971 498.763L420.64 498.02ZM410.14 576.98L409.709 576.078L410.14 577.98V576.98ZM363.1 500.4V499.4H362.1V500.4H363.1ZM363.1 567.46H362.1V568.46H363.1V567.46ZM408.6 559.06L409.267 559.805L409.268 559.804L408.6 559.06ZM441.48 576.98V583H443.48V576.98H441.48ZM442.48 582H333V584H442.48V582ZM334 583V576.98H332V583H334ZM333 577.98H346.58V575.98H333V577.98ZM347.58 576.98V485.14H345.58V576.98H347.58ZM346.58 486.14H380.18V484.14H346.58V486.14ZM380.18 486.14C397.572 486.14 410.784 490.395 419.967 498.759L421.313 497.281C411.643 488.472 397.881 484.14 380.18 484.14V486.14ZM419.971 498.763C429.141 507.026 433.78 518.722 433.78 534H435.78C435.78 518.291 430.992 506.001 421.309 497.277L419.971 498.763ZM433.78 534C433.78 544.277 431.753 552.88 427.752 559.858C423.757 566.827 417.759 572.236 409.709 576.078L410.571 577.882C418.948 573.884 425.27 568.21 429.488 560.852C433.701 553.503 435.78 544.536 435.78 534H433.78ZM410.14 577.98H442.48V575.98H410.14V577.98ZM419.12 534C419.12 522.608 415.85 513.892 409.153 508.047C402.481 502.224 392.577 499.4 379.62 499.4V501.4C392.33 501.4 401.676 504.176 407.837 509.553C413.973 514.908 417.12 522.992 417.12 534H419.12ZM379.62 499.4H363.1V501.4H379.62V499.4ZM362.1 500.4V567.46H364.1V500.4H362.1ZM363.1 568.46H381.44V566.46H363.1V568.46ZM381.44 568.46C393.439 568.46 402.767 565.626 409.267 559.805L407.933 558.315C401.926 563.694 393.148 566.46 381.44 566.46V568.46ZM409.268 559.804C415.884 553.87 419.12 545.209 419.12 534H417.12C417.12 544.817 414.01 552.864 407.932 558.316L409.268 559.804ZM560.112 576.98H561.112V575.98H560.112V576.98ZM560.112 583V584H561.112V583H560.112ZM442.512 583H441.512V584H442.512V583ZM442.512 576.98V575.98H441.512V576.98H442.512ZM474.572 576.98V577.98H478.327L475.069 576.112L474.572 576.98ZM456.372 558.92L455.504 559.417L455.509 559.425L456.372 558.92ZM464.632 497.32L465.329 498.037L465.332 498.034L464.632 497.32ZM537.992 497.32L537.291 498.034L537.295 498.037L537.992 497.32ZM546.112 558.92L545.246 558.419L545.242 558.427L546.112 558.92ZM528.052 576.98L527.562 576.108L524.225 577.98H528.052V576.98ZM525.812 508.24L525.09 508.932L525.095 508.937L525.812 508.24ZM476.672 508.24L475.955 507.543L475.95 507.548L476.672 508.24ZM476.672 558.5L475.95 559.192L475.955 559.197L476.672 558.5ZM525.812 558.5L525.095 557.803L525.09 557.808L525.812 558.5ZM559.112 576.98V583H561.112V576.98H559.112ZM560.112 582H442.512V584H560.112V582ZM443.512 583V576.98H441.512V583H443.512ZM442.512 577.98H474.572V575.98H442.512V577.98ZM475.069 576.112C467.568 571.813 461.627 565.918 457.235 558.415L455.509 559.425C460.076 567.228 466.269 573.374 474.074 577.848L475.069 576.112ZM457.239 558.423C452.945 550.931 450.792 542.565 450.792 533.3H448.792C448.792 542.889 451.025 551.602 455.504 559.417L457.239 558.423ZM450.792 533.3C450.792 519.184 455.638 507.454 465.329 498.037L463.935 496.603C453.839 506.413 448.792 518.669 448.792 533.3H450.792ZM465.332 498.034C475.028 488.521 486.999 483.76 501.312 483.76V481.76C486.504 481.76 474.022 486.706 463.931 496.606L465.332 498.034ZM501.312 483.76C515.624 483.76 527.595 488.521 537.291 498.034L538.692 496.606C528.602 486.706 516.119 481.76 501.312 481.76V483.76ZM537.295 498.037C546.985 507.454 551.832 519.184 551.832 533.3H553.832C553.832 518.669 548.785 506.413 538.689 496.603L537.295 498.037ZM551.832 533.3C551.832 542.465 549.634 550.832 545.246 558.419L546.977 559.421C551.549 551.515 553.832 542.801 553.832 533.3H551.832ZM545.242 558.427C540.943 566.017 535.054 571.905 527.562 576.108L528.541 577.852C536.356 573.468 542.507 567.316 546.982 559.413L545.242 558.427ZM528.052 577.98H560.112V575.98H528.052V577.98ZM526.533 507.548C519.715 500.441 511.286 496.88 501.312 496.88V498.88C510.75 498.88 518.655 502.225 525.09 508.932L526.533 507.548ZM501.312 496.88C491.337 496.88 482.865 500.441 475.955 507.543L477.388 508.937C483.919 502.226 491.873 498.88 501.312 498.88V496.88ZM475.95 507.548C469.138 514.647 465.732 523.298 465.732 533.44H467.732C467.732 523.795 470.952 515.646 477.393 508.932L475.95 507.548ZM465.732 533.44C465.732 543.491 469.14 552.095 475.95 559.192L477.393 557.808C470.95 551.092 467.732 542.989 467.732 533.44H465.732ZM475.955 559.197C482.865 566.299 491.337 569.86 501.312 569.86V567.86C491.873 567.86 483.919 564.514 477.388 557.803L475.955 559.197ZM501.312 569.86C511.286 569.86 519.715 566.299 526.533 559.192L525.09 557.808C518.655 564.515 510.75 567.86 501.312 567.86V569.86ZM526.528 559.197C533.434 552.1 536.892 543.496 536.892 533.44H534.892C534.892 542.984 531.63 551.086 525.095 557.803L526.528 559.197ZM536.892 533.44C536.892 523.294 533.435 514.641 526.528 507.543L525.095 508.937C531.628 515.652 534.892 523.799 534.892 533.44H536.892ZM573.67 576.98V577.98H574.67V576.98H573.67ZM573.67 485.14V484.14H572.67V485.14H573.67ZM590.19 485.14L590.979 484.526L590.679 484.14H590.19V485.14ZM647.03 558.22L646.24 558.834L648.03 561.135V558.22H647.03ZM647.03 485.14V484.14H646.03V485.14H647.03ZM663.55 485.14H664.55V484.14H663.55V485.14ZM663.55 576.98H662.55V577.98H663.55V576.98ZM677.13 576.98H678.13V575.98H677.13V576.98ZM677.13 583V584H678.13V583H677.13ZM645.63 583L644.84 583.613L645.14 584H645.63V583ZM590.19 511.6L590.98 510.987L589.19 508.682V511.6H590.19ZM590.19 583V584H591.19V583H590.19ZM560.09 583H559.09V584H560.09V583ZM560.09 576.98V575.98H559.09V576.98H560.09ZM574.67 576.98V485.14H572.67V576.98H574.67ZM573.67 486.14H590.19V484.14H573.67V486.14ZM589.4 485.754L646.24 558.834L647.819 557.606L590.979 484.526L589.4 485.754ZM648.03 558.22V485.14H646.03V558.22H648.03ZM647.03 486.14H663.55V484.14H647.03V486.14ZM662.55 485.14V576.98H664.55V485.14H662.55ZM663.55 577.98H677.13V575.98H663.55V577.98ZM676.13 576.98V583H678.13V576.98H676.13ZM677.13 582H645.63V584H677.13V582ZM646.42 582.387L590.98 510.987L589.4 512.213L644.84 583.613L646.42 582.387ZM589.19 511.6V583H591.19V511.6H589.19ZM590.19 582H560.09V584H590.19V582ZM561.09 583V576.98H559.09V583H561.09ZM560.09 577.98H573.67V575.98H560.09V577.98ZM794.721 576.98H795.721V575.98H794.721V576.98ZM794.721 583V584H795.721V583H794.721ZM677.121 583H676.121V584H677.121V583ZM677.121 576.98V575.98H676.121V576.98H677.121ZM709.181 576.98V577.98H712.937L709.678 576.112L709.181 576.98ZM690.981 558.92L690.113 559.417L690.118 559.425L690.981 558.92ZM699.241 497.32L699.938 498.037L699.941 498.034L699.241 497.32ZM772.601 497.32L771.901 498.034L771.904 498.037L772.601 497.32ZM780.721 558.92L779.855 558.419L779.851 558.427L780.721 558.92ZM762.661 576.98L762.172 576.108L758.835 577.98H762.661V576.98ZM760.421 508.24L759.699 508.932L759.704 508.937L760.421 508.24ZM711.281 508.24L710.564 507.543L710.56 507.548L711.281 508.24ZM711.281 558.5L710.559 559.192L710.564 559.197L711.281 558.5ZM760.421 558.5L759.704 557.803L759.7 557.808L760.421 558.5ZM793.721 576.98V583H795.721V576.98H793.721ZM794.721 582H677.121V584H794.721V582ZM678.121 583V576.98H676.121V583H678.121ZM677.121 577.98H709.181V575.98H677.121V577.98ZM709.678 576.112C702.177 571.813 696.236 565.918 691.844 558.415L690.118 559.425C694.686 567.228 700.878 573.374 708.684 577.848L709.678 576.112ZM691.849 558.423C687.555 550.931 685.401 542.565 685.401 533.3H683.401C683.401 542.889 685.634 551.602 690.114 559.417L691.849 558.423ZM685.401 533.3C685.401 519.184 690.247 507.454 699.938 498.037L698.544 496.603C688.448 506.413 683.401 518.669 683.401 533.3H685.401ZM699.941 498.034C709.638 488.521 721.608 483.76 735.921 483.76V481.76C721.114 481.76 708.631 486.706 698.541 496.606L699.941 498.034ZM735.921 483.76C750.234 483.76 762.205 488.521 771.901 498.034L773.301 496.606C763.211 486.706 750.728 481.76 735.921 481.76V483.76ZM771.904 498.037C781.595 507.454 786.441 519.184 786.441 533.3H788.441C788.441 518.669 783.394 506.413 773.298 496.603L771.904 498.037ZM786.441 533.3C786.441 542.465 784.244 550.832 779.855 558.419L781.587 559.421C786.159 551.515 788.441 542.801 788.441 533.3H786.441ZM779.851 558.427C775.553 566.017 769.664 571.905 762.172 576.108L763.15 577.852C770.965 573.468 777.116 567.316 781.591 559.413L779.851 558.427ZM762.661 577.98H794.721V575.98H762.661V577.98ZM761.143 507.548C754.324 500.441 745.896 496.88 735.921 496.88V498.88C745.36 498.88 753.264 502.225 759.7 508.932L761.143 507.548ZM735.921 496.88C725.947 496.88 717.474 500.441 710.564 507.543L711.998 508.937C718.528 502.226 726.482 498.88 735.921 498.88V496.88ZM710.56 507.548C703.748 514.647 700.341 523.298 700.341 533.44H702.341C702.341 523.795 705.561 515.646 712.003 508.932L710.56 507.548ZM700.341 533.44C700.341 543.491 703.749 552.095 710.56 559.192L712.003 557.808C705.559 551.092 702.341 542.989 702.341 533.44H700.341ZM710.564 559.197C717.474 566.299 725.947 569.86 735.921 569.86V567.86C726.482 567.86 718.528 564.514 711.998 557.803L710.564 559.197ZM735.921 569.86C745.896 569.86 754.324 566.299 761.143 559.192L759.7 557.808C753.264 564.515 745.36 567.86 735.921 567.86V569.86ZM761.138 559.197C768.043 552.1 771.501 543.496 771.501 533.44H769.501C769.501 542.984 766.239 551.086 759.704 557.803L761.138 559.197ZM771.501 533.44C771.501 523.294 768.045 514.641 761.138 507.543L759.704 508.937C766.237 515.652 769.501 523.799 769.501 533.44H771.501ZM900.119 576.98H901.119V575.98H900.119V576.98ZM900.119 583V584H901.119V583H900.119ZM869.879 583L869.064 583.579L869.363 584H869.879V583ZM846.499 550.1L847.314 549.521L847.015 549.1H846.499V550.1ZM824.799 550.1V549.1H823.799V550.1H824.799ZM824.799 583V584H825.799V583H824.799ZM794.699 583H793.699V584H794.699V583ZM794.699 576.98V575.98H793.699V576.98H794.699ZM808.279 576.98V577.98H809.279V576.98H808.279ZM808.279 485.14V484.14H807.279V485.14H808.279ZM865.259 547.44L864.974 546.482L863.626 546.883L864.448 548.025L865.259 547.44ZM886.539 576.98L885.728 577.565L886.027 577.98H886.539V576.98ZM864.419 530.78L863.767 530.022L863.767 530.022L864.419 530.78ZM864.279 503.76L863.704 504.578L863.712 504.583L863.719 504.589L864.279 503.76ZM824.799 500.12V499.12H823.799V500.12H824.799ZM824.799 535.12H823.799V536.12H824.799V535.12ZM899.119 576.98V583H901.119V576.98H899.119ZM900.119 582H869.879V584H900.119V582ZM870.694 582.421L847.314 549.521L845.684 550.679L869.064 583.579L870.694 582.421ZM846.499 549.1H824.799V551.1H846.499V549.1ZM823.799 550.1V583H825.799V550.1H823.799ZM824.799 582H794.699V584H824.799V582ZM795.699 583V576.98H793.699V583H795.699ZM794.699 577.98H808.279V575.98H794.699V577.98ZM809.279 576.98V485.14H807.279V576.98H809.279ZM808.279 486.14H844.679V484.14H808.279V486.14ZM844.679 486.14C859.551 486.14 869.954 488.66 876.123 493.487L877.356 491.912C870.644 486.66 859.674 484.14 844.679 484.14V486.14ZM876.123 493.487C882.241 498.276 885.399 506.003 885.399 516.92H887.399C887.399 505.624 884.117 497.204 877.356 491.912L876.123 493.487ZM885.399 516.92C885.399 524.851 883.669 531.215 880.292 536.091C876.922 540.957 871.845 544.434 864.974 546.482L865.545 548.398C872.767 546.246 878.26 542.536 881.936 537.229C885.606 531.931 887.399 525.135 887.399 516.92H885.399ZM864.448 548.025L885.728 577.565L887.351 576.395L866.071 546.855L864.448 548.025ZM886.539 577.98H900.119V575.98H886.539V577.98ZM845.379 536.12C850.091 536.12 854.091 535.755 857.361 535.01C860.625 534.266 863.224 533.129 865.072 531.538L863.767 530.022C862.255 531.324 860 532.357 856.917 533.06C853.84 533.761 850 534.12 845.379 534.12V536.12ZM865.072 531.538C868.734 528.384 870.459 523.428 870.459 516.92H868.459C868.459 523.105 866.824 527.39 863.767 530.022L865.072 531.538ZM870.459 516.92C870.459 510.337 868.694 505.536 864.839 502.931L863.719 504.589C866.771 506.651 868.459 510.623 868.459 516.92H870.459ZM864.854 502.942C861.127 500.323 854.688 499.12 845.799 499.12V501.12C854.644 501.12 860.524 502.344 863.704 504.578L864.854 502.942ZM845.799 499.12H824.799V501.12H845.799V499.12ZM823.799 500.12V535.12H825.799V500.12H823.799ZM824.799 536.12H845.379V534.12H824.799V536.12ZM995.395 576.98H996.395V575.98H995.395V576.98ZM995.395 583V584H996.395V583H995.395ZM896.555 583H895.555V584H896.555V583ZM896.555 576.98V575.98H895.555V576.98H896.555ZM910.135 576.98V577.98H911.135V576.98H910.135ZM910.135 485.14V484.14H909.135V485.14H910.135ZM965.295 487.52L964.978 488.469L964.984 488.47L965.295 487.52ZM976.075 493.96L975.317 494.613L975.322 494.619L975.327 494.624L976.075 493.96ZM975.515 528.12L976.108 528.925L976.116 528.919L976.124 528.913L975.515 528.12ZM971.875 530.64L972.269 531.559L972.321 531.537L972.371 531.508L971.875 530.64ZM968.375 532.18L967.969 531.266L965.166 532.512L968.164 533.158L968.375 532.18ZM982.795 540.44L982.031 541.085L982.038 541.094L982.046 541.103L982.795 540.44ZM977.335 576.98L976.78 576.148L974.032 577.98H977.335V576.98ZM926.655 567.74H925.655V568.74H926.655V567.74ZM966.415 564.94L966.922 565.802L966.929 565.797L966.415 564.94ZM926.655 541V540H925.655V541H926.655ZM926.655 525.74H925.655V526.74H926.655V525.74ZM961.235 503.48L960.656 504.296L960.656 504.296L961.235 503.48ZM926.655 500.4V499.4H925.655V500.4H926.655ZM994.395 576.98V583H996.395V576.98H994.395ZM995.395 582H896.555V584H995.395V582ZM897.555 583V576.98H895.555V583H897.555ZM896.555 577.98H910.135V575.98H896.555V577.98ZM911.135 576.98V485.14H909.135V576.98H911.135ZM910.135 486.14H948.215V484.14H910.135V486.14ZM948.215 486.14C954.766 486.14 960.347 486.925 964.978 488.469L965.611 486.571C960.722 484.942 954.916 484.14 948.215 484.14V486.14ZM964.984 488.47C969.734 490.024 973.143 492.091 975.317 494.613L976.832 493.307C974.339 490.415 970.562 488.19 965.605 486.569L964.984 488.47ZM975.327 494.624C979.656 499.494 981.795 504.954 981.795 511.04H983.795C983.795 504.432 981.454 498.506 976.822 493.296L975.327 494.624ZM981.795 511.04C981.795 518.469 979.451 523.83 974.905 527.327L976.124 528.913C981.285 524.943 983.795 518.918 983.795 511.04H981.795ZM974.921 527.315C973.141 528.627 971.973 529.432 971.379 529.772L972.371 531.508C973.083 531.102 974.342 530.227 976.108 528.925L974.921 527.315ZM971.481 529.721C970.821 530.004 969.648 530.52 967.969 531.266L968.781 533.094C970.461 532.347 971.622 531.836 972.269 531.559L971.481 529.721ZM968.164 533.158C974.044 534.424 978.645 537.076 982.031 541.085L983.559 539.795C979.851 535.404 974.839 532.549 968.585 531.202L968.164 533.158ZM982.046 541.103C985.504 545.004 987.255 549.892 987.255 555.84H989.255C989.255 549.468 987.365 544.089 983.543 539.777L982.046 541.103ZM987.255 555.84C987.255 564.768 983.764 571.492 976.78 576.148L977.889 577.812C985.466 572.761 989.255 565.392 989.255 555.84H987.255ZM977.335 577.98H995.395V575.98H977.335V577.98ZM926.655 568.74H952.555V566.74H926.655V568.74ZM952.555 568.74C958.697 568.74 963.525 567.8 966.922 565.802L965.908 564.078C962.958 565.813 958.546 566.74 952.555 566.74V568.74ZM966.929 565.797C970.609 563.589 972.315 559.537 972.315 554.02H970.315C970.315 559.143 968.753 562.371 965.9 564.083L966.929 565.797ZM972.315 554.02C972.315 549.36 970.419 545.772 966.629 543.407C962.918 541.09 957.48 540 950.455 540V542C957.336 542 962.328 543.08 965.57 545.103C968.734 547.078 970.315 550 970.315 554.02H972.315ZM950.455 540H926.655V542H950.455V540ZM925.655 541V567.74H927.655V541H925.655ZM926.655 526.74H947.655V524.74H926.655V526.74ZM947.655 526.74C953.71 526.74 958.428 525.717 961.657 523.522C964.955 521.28 966.575 517.903 966.575 513.56H964.575C964.575 517.337 963.208 520.05 960.533 521.868C957.788 523.733 953.546 524.74 947.655 524.74V526.74ZM966.575 513.56C966.575 508.682 965.051 504.962 961.813 502.664L960.656 504.296C963.205 506.105 964.575 509.105 964.575 513.56H966.575ZM961.813 502.664C958.668 500.433 953.937 499.4 947.795 499.4V501.4C953.786 501.4 958.014 502.421 960.656 504.296L961.813 502.664ZM947.795 499.4H926.655V501.4H947.795V499.4ZM925.655 500.4V525.74H927.655V500.4H925.655ZM1100.82 576.98H1101.82V575.98H1100.82V576.98ZM1100.82 583V584H1101.82V583H1100.82ZM1070.58 583L1069.77 583.579L1070.07 584H1070.58V583ZM1047.2 550.1L1048.02 549.521L1047.72 549.1H1047.2V550.1ZM1025.5 550.1V549.1H1024.5V550.1H1025.5ZM1025.5 583V584H1026.5V583H1025.5ZM995.402 583H994.402V584H995.402V583ZM995.402 576.98V575.98H994.402V576.98H995.402ZM1008.98 576.98V577.98H1009.98V576.98H1008.98ZM1008.98 485.14V484.14H1007.98V485.14H1008.98ZM1065.96 547.44L1065.68 546.482L1064.33 546.883L1065.15 548.025L1065.96 547.44ZM1087.24 576.98L1086.43 577.565L1086.73 577.98H1087.24V576.98ZM1065.12 530.78L1064.47 530.022L1064.47 530.022L1065.12 530.78ZM1064.98 503.76L1064.41 504.578L1064.41 504.583L1064.42 504.589L1064.98 503.76ZM1025.5 500.12V499.12H1024.5V500.12H1025.5ZM1025.5 535.12H1024.5V536.12H1025.5V535.12ZM1099.82 576.98V583H1101.82V576.98H1099.82ZM1100.82 582H1070.58V584H1100.82V582ZM1071.4 582.421L1048.02 549.521L1046.39 550.679L1069.77 583.579L1071.4 582.421ZM1047.2 549.1H1025.5V551.1H1047.2V549.1ZM1024.5 550.1V583H1026.5V550.1H1024.5ZM1025.5 582H995.402V584H1025.5V582ZM996.402 583V576.98H994.402V583H996.402ZM995.402 577.98H1008.98V575.98H995.402V577.98ZM1009.98 576.98V485.14H1007.98V576.98H1009.98ZM1008.98 486.14H1045.38V484.14H1008.98V486.14ZM1045.38 486.14C1060.25 486.14 1070.66 488.66 1076.83 493.487L1078.06 491.912C1071.35 486.66 1060.38 484.14 1045.38 484.14V486.14ZM1076.83 493.487C1082.94 498.276 1086.1 506.003 1086.1 516.92H1088.1C1088.1 505.624 1084.82 497.204 1078.06 491.912L1076.83 493.487ZM1086.1 516.92C1086.1 524.851 1084.37 531.215 1081 536.091C1077.62 540.957 1072.55 544.434 1065.68 546.482L1066.25 548.398C1073.47 546.246 1078.96 542.536 1082.64 537.229C1086.31 531.931 1088.1 525.135 1088.1 516.92H1086.1ZM1065.15 548.025L1086.43 577.565L1088.05 576.395L1066.77 546.855L1065.15 548.025ZM1087.24 577.98H1100.82V575.98H1087.24V577.98ZM1046.08 536.12C1050.79 536.12 1054.79 535.755 1058.06 535.01C1061.33 534.266 1063.93 533.129 1065.77 531.538L1064.47 530.022C1062.96 531.324 1060.7 532.357 1057.62 533.06C1054.54 533.761 1050.7 534.12 1046.08 534.12V536.12ZM1065.77 531.538C1069.44 528.384 1071.16 523.428 1071.16 516.92H1069.16C1069.16 523.105 1067.53 527.39 1064.47 530.022L1065.77 531.538ZM1071.16 516.92C1071.16 510.337 1069.4 505.536 1065.54 502.931L1064.42 504.589C1067.47 506.651 1069.16 510.623 1069.16 516.92H1071.16ZM1065.56 502.942C1061.83 500.323 1055.39 499.12 1046.5 499.12V501.12C1055.35 501.12 1061.23 502.344 1064.41 504.578L1065.56 502.942ZM1046.5 499.12H1025.5V501.12H1046.5V499.12ZM1024.5 500.12V535.12H1026.5V500.12H1024.5ZM1025.5 536.12H1046.08V534.12H1025.5V536.12ZM1110.84 576.98V577.98H1111.84V576.98H1110.84ZM1110.84 485.14V484.14H1109.84V485.14H1110.84ZM1127.36 485.14H1128.36V484.14H1127.36V485.14ZM1127.36 576.98H1126.36V577.98H1127.36V576.98ZM1140.94 576.98H1141.94V575.98H1140.94V576.98ZM1140.94 583V584H1141.94V583H1140.94ZM1097.26 583H1096.26V584H1097.26V583ZM1097.26 576.98V575.98H1096.26V576.98H1097.26ZM1111.84 576.98V485.14H1109.84V576.98H1111.84ZM1110.84 486.14H1127.36V484.14H1110.84V486.14ZM1126.36 485.14V576.98H1128.36V485.14H1126.36ZM1127.36 577.98H1140.94V575.98H1127.36V577.98ZM1139.94 576.98V583H1141.94V576.98H1139.94ZM1140.94 582H1097.26V584H1140.94V582ZM1098.26 583V576.98H1096.26V583H1098.26ZM1097.26 577.98H1110.84V575.98H1097.26V577.98ZM1250.35 576.98H1251.35V575.98H1250.35V576.98ZM1250.35 583V584H1251.35V583H1250.35ZM1140.87 583H1139.87V584H1140.87V583ZM1140.87 576.98V575.98H1139.87V576.98H1140.87ZM1154.45 576.98V577.98H1155.45V576.98H1154.45ZM1154.45 485.14V484.14H1153.45V485.14H1154.45ZM1228.51 498.02L1227.84 498.759L1227.84 498.763L1228.51 498.02ZM1218.01 576.98L1217.58 576.078L1218.01 577.98V576.98ZM1170.97 500.4V499.4H1169.97V500.4H1170.97ZM1170.97 567.46H1169.97V568.46H1170.97V567.46ZM1216.47 559.06L1217.14 559.805L1217.14 559.804L1216.47 559.06ZM1249.35 576.98V583H1251.35V576.98H1249.35ZM1250.35 582H1140.87V584H1250.35V582ZM1141.87 583V576.98H1139.87V583H1141.87ZM1140.87 577.98H1154.45V575.98H1140.87V577.98ZM1155.45 576.98V485.14H1153.45V576.98H1155.45ZM1154.45 486.14H1188.05V484.14H1154.45V486.14ZM1188.05 486.14C1205.44 486.14 1218.65 490.395 1227.84 498.759L1229.18 497.281C1219.51 488.472 1205.75 484.14 1188.05 484.14V486.14ZM1227.84 498.763C1237.01 507.026 1241.65 518.722 1241.65 534H1243.65C1243.65 518.291 1238.86 506.001 1229.18 497.277L1227.84 498.763ZM1241.65 534C1241.65 544.277 1239.62 552.88 1235.62 559.858C1231.63 566.827 1225.63 572.236 1217.58 576.078L1218.44 577.882C1226.82 573.884 1233.14 568.21 1237.36 560.852C1241.57 553.503 1243.65 544.536 1243.65 534H1241.65ZM1218.01 577.98H1250.35V575.98H1218.01V577.98ZM1226.99 534C1226.99 522.608 1223.72 513.892 1217.02 508.047C1210.35 502.224 1200.45 499.4 1187.49 499.4V501.4C1200.2 501.4 1209.55 504.176 1215.71 509.553C1221.84 514.908 1224.99 522.992 1224.99 534H1226.99ZM1187.49 499.4H1170.97V501.4H1187.49V499.4ZM1169.97 500.4V567.46H1171.97V500.4H1169.97ZM1170.97 568.46H1189.31V566.46H1170.97V568.46ZM1189.31 568.46C1201.31 568.46 1210.64 565.626 1217.14 559.805L1215.8 558.315C1209.8 563.694 1201.02 566.46 1189.31 566.46V568.46ZM1217.14 559.804C1223.75 553.87 1226.99 545.209 1226.99 534H1224.99C1224.99 544.817 1221.88 552.864 1215.8 558.316L1217.14 559.804ZM1356.36 576.98H1357.36V575.98H1356.36V576.98ZM1356.36 583V584H1357.36V583H1356.36ZM1250.38 583H1249.38V584H1250.38V583ZM1250.38 576.98V575.98H1249.38V576.98H1250.38ZM1284.26 576.98V577.98L1284.71 576.088L1284.26 576.98ZM1264.8 558.92L1263.95 559.435L1263.95 559.442L1264.8 558.92ZM1272.5 496.76L1273.19 497.491L1273.19 497.487L1272.5 496.76ZM1343.76 495.08L1344.58 495.653L1345.1 494.92L1344.42 494.329L1343.76 495.08ZM1334.94 507.68L1334.29 508.441L1335.13 509.155L1335.76 508.253L1334.94 507.68ZM1323.32 500.96L1323 501.906L1323.01 501.911L1323.03 501.915L1323.32 500.96ZM1284.82 507.96L1284.16 507.213L1284.15 507.217L1284.82 507.96ZM1284.68 557.52L1283.99 558.237L1283.99 558.242L1284.68 557.52ZM1331.72 560.88L1332.26 561.722L1332.72 561.426V560.88H1331.72ZM1331.72 534V533H1330.72V534H1331.72ZM1348.24 534H1349.24V533H1348.24V534ZM1348.24 567.46L1348.99 568.13L1349.24 567.845V567.46H1348.24ZM1335.64 576.98L1335.19 576.089L1335.64 577.98V576.98ZM1355.36 576.98V583H1357.36V576.98H1355.36ZM1356.36 582H1250.38V584H1356.36V582ZM1251.38 583V576.98H1249.38V583H1251.38ZM1250.38 577.98H1284.26V575.98H1250.38V577.98ZM1284.71 576.088C1276.76 572.067 1270.41 566.177 1265.66 558.398L1263.95 559.442C1268.9 567.53 1275.52 573.68 1283.81 577.872L1284.71 576.088ZM1265.66 558.406C1261 550.64 1258.66 541.86 1258.66 532.04H1256.66C1256.66 542.193 1259.08 551.333 1263.95 559.434L1265.66 558.406ZM1258.66 532.04C1258.66 518.02 1263.51 506.53 1273.19 497.491L1271.82 496.029C1261.71 505.47 1256.66 517.5 1256.66 532.04H1258.66ZM1273.19 497.487C1282.89 488.336 1294.63 483.76 1308.48 483.76V481.76C1294.14 481.76 1281.9 486.517 1271.82 496.033L1273.19 497.487ZM1308.48 483.76C1322.46 483.76 1333.98 487.801 1343.1 495.831L1344.42 494.329C1334.88 485.933 1322.88 481.76 1308.48 481.76V483.76ZM1342.94 494.507L1334.12 507.107L1335.76 508.253L1344.58 495.653L1342.94 494.507ZM1335.59 506.919C1331.68 503.584 1327.69 501.266 1323.62 500.005L1323.03 501.915C1326.79 503.08 1330.55 505.243 1334.29 508.441L1335.59 506.919ZM1323.65 500.014C1319.69 498.663 1315.1 498 1309.88 498V500C1314.93 500 1319.3 500.643 1323 501.906L1323.65 500.014ZM1309.88 498C1299.68 498 1291.08 501.058 1284.16 507.213L1285.49 508.707C1292 502.915 1300.11 500 1309.88 500V498ZM1284.15 507.217C1277.28 513.411 1273.88 521.867 1273.88 532.46H1275.88C1275.88 522.333 1279.11 514.455 1285.49 508.703L1284.15 507.217ZM1273.88 532.46C1273.88 543.05 1277.23 551.676 1283.99 558.237L1285.38 556.803C1279.07 550.671 1275.88 542.59 1275.88 532.46H1273.88ZM1283.99 558.242C1290.72 564.678 1298.85 567.9 1308.34 567.9V565.9C1299.35 565.9 1291.72 562.869 1285.37 556.798L1283.99 558.242ZM1308.34 567.9C1317.82 567.9 1325.81 565.862 1332.26 561.722L1331.18 560.038C1325.13 563.925 1317.53 565.9 1308.34 565.9V567.9ZM1332.72 560.88V534H1330.72V560.88H1332.72ZM1331.72 535H1348.24V533H1331.72V535ZM1347.24 534V567.46H1349.24V534H1347.24ZM1347.5 566.79C1344.14 570.519 1340.04 573.62 1335.19 576.089L1336.1 577.871C1341.14 575.3 1345.44 572.054 1348.99 568.13L1347.5 566.79ZM1335.64 577.98H1356.36V575.98H1335.64V577.98ZM1369.92 576.98V577.98H1370.92V576.98H1369.92ZM1369.92 485.14V484.14H1368.92V485.14H1369.92ZM1438.66 485.14H1439.66V484.14H1438.66V485.14ZM1438.66 500.68V501.68H1439.66V500.68H1438.66ZM1386.44 500.68V499.68H1385.44V500.68H1386.44ZM1386.44 526.58H1385.44V527.58H1386.44V526.58ZM1433.34 526.58H1434.34V525.58H1433.34V526.58ZM1433.34 541.28V542.28H1434.34V541.28H1433.34ZM1386.44 541.28V540.28H1385.44V541.28H1386.44ZM1386.44 567.46H1385.44V568.46H1386.44V567.46ZM1440.34 567.46H1441.34V566.46H1440.34V567.46ZM1440.34 576.98H1439.34V577.98H1440.34V576.98ZM1453.92 576.98H1454.92V575.98H1453.92V576.98ZM1453.92 583V584H1454.92V583H1453.92ZM1356.34 583H1355.34V584H1356.34V583ZM1356.34 576.98V575.98H1355.34V576.98H1356.34ZM1370.92 576.98V485.14H1368.92V576.98H1370.92ZM1369.92 486.14H1438.66V484.14H1369.92V486.14ZM1437.66 485.14V500.68H1439.66V485.14H1437.66ZM1438.66 499.68H1386.44V501.68H1438.66V499.68ZM1385.44 500.68V526.58H1387.44V500.68H1385.44ZM1386.44 527.58H1433.34V525.58H1386.44V527.58ZM1432.34 526.58V541.28H1434.34V526.58H1432.34ZM1433.34 540.28H1386.44V542.28H1433.34V540.28ZM1385.44 541.28V567.46H1387.44V541.28H1385.44ZM1386.44 568.46H1440.34V566.46H1386.44V568.46ZM1439.34 567.46V576.98H1441.34V567.46H1439.34ZM1440.34 577.98H1453.92V575.98H1440.34V577.98ZM1452.92 576.98V583H1454.92V576.98H1452.92ZM1453.92 582H1356.34V584H1453.92V582ZM1357.34 583V576.98H1355.34V583H1357.34ZM1356.34 577.98H1369.92V575.98H1356.34V577.98Z" fill="black" mask="url(#path-34-outside-1_0_1)"/>
</g>
<defs>
<filter id="filter0_d_0_1" x="329" y="482.758" width="1128.92" height="108.242" filterUnits="userSpaceOnUse" color-interpolation-filters="sRGB">
<feFlood flood-opacity="0" result="BackgroundImageFix"/>
<feColorMatrix in="SourceAlpha" type="matrix" values="0 0 0 0 0 0 0 0 0 0 0 0 0 0 0 0 0 0 127 0" result="hardAlpha"/>
<feOffset dy="4"/>
<feGaussianBlur stdDeviation="2"/>
<feComposite in2="hardAlpha" operator="out"/>
<feColorMatrix type="matrix" values="0 0 0 0 0 0 0 0 0 0 0 0 0 0 0 0 0 0 0.25 0"/>
<feBlend mode="normal" in2="BackgroundImageFix" result="effect1_dropShadow_0_1"/>
<feBlend mode="normal" in="SourceGraphic" in2="effect1_dropShadow_0_1" result="shape"/>
</filter>
<linearGradient id="paint0_linear_0_1" x1="897.5" y1="239" x2="897.5" y2="277" gradientUnits="userSpaceOnUse">
<stop offset="0.421875" stop-color="#C8ACD6"/>
<stop offset="1" stop-color="white"/>
</linearGradient>
<linearGradient id="paint1_linear_0_1" x1="888.5" y1="396" x2="888.5" y2="434" gradientUnits="userSpaceOnUse">
<stop offset="0.369792" stop-color="#C8ACD6"/>
<stop offset="1" stop-color="#D8C7F1"/>
</linearGradient>
<linearGradient id="paint2_linear_0_1" x1="1063.5" y1="396" x2="1063.5" y2="434" gradientUnits="userSpaceOnUse">
<stop offset="0.369792" stop-color="#C8ACD6"/>
<stop offset="1" stop-color="#D8C7F1"/>
</linearGradient>
<linearGradient id="paint3_linear_0_1" x1="17.5" y1="0" x2="17.5" y2="38" gradientUnits="userSpaceOnUse">
<stop offset="0.369792" stop-color="#C8ACD6"/>
<stop offset="1" stop-color="#D8C7F1"/>
</linearGradient>
</defs>
</svg>
